<svg width="118" height="132" viewBox="0 0 118 132" fill="none" xmlns="http://www.w3.org/2000/svg">
<g clip-path="url(#clip0)">
<path d="M117.316 39.269C117.315 37.0495 116.84 35.0885 115.882 33.4056C114.94 31.7503 113.529 30.3635 111.637 29.2664C96.0181 20.2519 80.3841 11.2649 64.7707 2.24117C60.5613 -0.190964 56.4798 -0.102514 52.3016 2.36491C46.0849 6.03487 14.9599 23.8843 5.68506 29.2613C1.86569 31.4749 0.00687431 34.8621 0.00595774 39.2649C0 57.3938 0.00595774 75.5218 0 93.6512C0.000916575 95.8217 0.45508 97.7446 1.37165 99.4027C2.31389 101.108 3.74421 102.533 5.68002 103.655C14.9553 109.032 46.0845 126.88 52.2998 130.551C56.4798 133.019 60.5613 133.107 64.7721 130.674C80.3859 121.65 96.0209 112.664 111.642 103.649C113.578 102.528 115.008 101.102 115.95 99.3981C116.866 97.7401 117.321 95.8171 117.322 93.6462C117.322 93.6462 117.322 57.3984 117.316 39.269Z" fill="#A9B9CB"/>
<path d="M64.6648 2.35931C60.4623 -0.0668599 56.3877 0.0215898 52.2164 2.48259C46.0098 6.14293 14.9356 23.946 5.67589 29.3094C1.86248 31.5169 0.00687431 34.8954 0.00595774 39.2867C0 57.3685 0.00595774 75.4497 0 93.5319C0.000916575 95.6969 0.454163 97.6148 1.36936 99.2683C2.31023 100.969 3.73825 102.391 5.67085 103.509C8.74809 105.288 11.8276 107.063 14.9095 108.835L100.651 23.0927C88.6543 16.1845 76.6541 9.28174 64.6648 2.35931Z" fill="#7F8B99"/>
<path d="M70.7852 58.1944L89.0429 58.3232C89.0429 50.7161 81.3428 32.0867 59.2666 32.0867C45.2013 32.0867 26.2924 41.0288 26.2924 66.7378C26.2924 92.4464 44.8287 100.83 59.2666 100.83C82.6471 100.83 88.235 84.6514 88.235 75.5085L70.8168 74.5127C70.8168 74.5127 71.2829 85.0877 59.1736 85.0877C47.9959 85.0877 46.1307 71.395 46.1307 66.7378C46.1307 59.6587 48.6481 48.2945 59.1736 48.2945C69.6995 48.2945 70.7852 58.1944 70.7852 58.1944Z" fill="white"/>
</g>
<defs>
<clipPath id="clip0">
<rect width="117.322" height="132" fill="white"/>
</clipPath>
</defs>
</svg>
