<svg width="232" height="232" viewBox="0 0 232 232" fill="none" xmlns="http://www.w3.org/2000/svg">
<path d="M174.316 87.269C174.315 85.0495 173.84 83.0885 172.882 81.4056C171.94 79.7503 170.529 78.3635 168.637 77.2664C153.018 68.2519 137.384 59.2649 121.771 50.2412C117.561 47.809 113.48 47.8975 109.302 50.3649C103.085 54.0349 71.9599 71.8843 62.6851 77.2613C58.8657 79.4749 57.0069 82.8621 57.006 87.2649C57 105.394 57.006 123.522 57 141.651C57.0009 143.822 57.4551 145.745 58.3717 147.403C59.3139 149.108 60.7442 150.533 62.68 151.655C71.9553 157.032 103.084 174.88 109.3 178.551C113.48 181.019 117.561 181.107 121.772 178.674C137.386 169.65 153.021 160.664 168.642 151.649C170.578 150.528 172.008 149.102 172.95 147.398C173.866 145.74 174.321 143.817 174.322 141.646C174.322 141.646 174.322 105.398 174.316 87.269Z" fill="#A9B9CB"/>
<path d="M121.665 50.3593C117.462 47.9331 113.388 48.0216 109.216 50.4826C103.01 54.1429 71.9356 71.946 62.6759 77.3094C58.8625 79.5169 57.0069 82.8954 57.006 87.2867C57 105.368 57.006 123.45 57 141.532C57.0009 143.697 57.4542 145.615 58.3694 147.268C59.3102 148.969 60.7383 150.391 62.6708 151.509C65.7481 153.288 68.8276 155.063 71.9095 156.835L157.651 71.0927C145.654 64.1845 133.654 57.2817 121.665 50.3593Z" fill="#7F8B99"/>
<path d="M127.785 106.194L146.043 106.323C146.043 98.7161 138.343 80.0867 116.267 80.0867C102.201 80.0867 83.2924 89.0288 83.2924 114.738C83.2924 140.446 101.829 148.83 116.267 148.83C139.647 148.83 145.235 132.651 145.235 123.509L127.817 122.513C127.817 122.513 128.283 133.088 116.174 133.088C104.996 133.088 103.131 119.395 103.131 114.738C103.131 107.659 105.648 96.2945 116.174 96.2945C126.7 96.2945 127.785 106.194 127.785 106.194Z" fill="white"/>
</svg>
