<svg width="83" height="117" viewBox="0 0 83 117" fill="none" xmlns="http://www.w3.org/2000/svg">
<g clip-path="url(#clip0)">
<path d="M82.8904 22.9932L75.3389 107.589L41.3945 117L7.54353 107.603L0 22.9932H82.8904Z" fill="#264DE4"/>
<path d="M68.8739 102.203L75.3272 29.9114H41.4452V109.807L68.8739 102.203Z" fill="#2965F1"/>
<path d="M17.2934 61.2917L18.2235 71.6686H41.4452V61.2917H17.2934Z" fill="#EBEBEB"/>
<path d="M41.4452 40.2883H41.4093H15.4246L16.3679 50.6655H41.4452V40.2883Z" fill="#EBEBEB"/>
<path d="M41.4452 99.0385V88.2421L41.3997 88.2542L29.8427 85.1336L29.104 76.8574H23.4882H18.6871L20.1409 93.1508L41.3974 99.0517L41.4452 99.0385Z" fill="#EBEBEB"/>
<path d="M19.5077 0H32.0761V5.25586H24.7636V10.5117H32.0761V15.7676H19.5077V0Z" fill="white"/>
<path d="M34.5897 0H47.1581V4.57031H39.8456V5.48438H47.1581V15.9961H34.5897V11.1973H41.9022V10.2832H34.5897V0Z" fill="white"/>
<path d="M49.6718 0H62.2401V4.57031H54.9276V5.48438H62.2401V15.9961H49.6718V11.1973H56.9842V10.2832H49.6718V0Z" fill="white"/>
<path d="M54.1874 71.6686L52.9829 85.1268L41.4093 88.2506V99.0466L62.6828 93.1506L62.8388 91.3975L65.2773 64.0782L65.5305 61.2917L67.4039 40.2883H41.4093V50.6655H56.0316L55.0873 61.2917H41.4093V71.6686H54.1874Z" fill="white"/>
</g>
<defs>
<clipPath id="clip0">
<rect width="82.8904" height="117" fill="white"/>
</clipPath>
</defs>
</svg>
