<svg width="232" height="232" viewBox="0 0 232 232" fill="none" xmlns="http://www.w3.org/2000/svg">
<path d="M157.89 78.9932L150.339 163.589L116.394 173L82.5435 163.603L75 78.9932H157.89Z" fill="#264DE4"/>
<path d="M143.874 158.203L150.327 85.9114H116.445V165.807L143.874 158.203Z" fill="#2965F1"/>
<path d="M92.2934 117.292L93.2235 127.669H116.445V117.292H92.2934Z" fill="#EBEBEB"/>
<path d="M116.445 96.2883H116.409H90.4246L91.3679 106.665H116.445V96.2883Z" fill="#EBEBEB"/>
<path d="M116.445 155.038V144.242L116.4 144.254L104.843 141.134L104.104 132.857H98.4882H93.6871L95.1409 149.151L116.397 155.052L116.445 155.038Z" fill="#EBEBEB"/>
<path d="M94.5077 56H107.076V61.2559H99.7636V66.5117H107.076V71.7676H94.5077V56Z" fill="white"/>
<path d="M109.59 56H122.158V60.5703H114.846V61.4844H122.158V71.9961H109.59V67.1973H116.902V66.2832H109.59V56Z" fill="white"/>
<path d="M124.672 56H137.24V60.5703H129.928V61.4844H137.24V71.9961H124.672V67.1973H131.984V66.2832H124.672V56Z" fill="white"/>
<path d="M129.187 127.669L127.983 141.127L116.409 144.251V155.047L137.683 149.151L137.839 147.397L140.277 120.078L140.531 117.292L142.404 96.2883H116.409V106.665H131.032L130.087 117.292H116.409V127.669H129.187Z" fill="white"/>
</svg>
