<svg width="97" height="72" viewBox="0 0 97 72" fill="none" xmlns="http://www.w3.org/2000/svg">
<g clip-path="url(#clip0)">
<path d="M82.6618 41.3836C79.3125 41.4011 76.4017 42.2077 73.9643 43.4001C73.07 41.6291 72.1757 40.0509 72.0178 38.8936C71.8425 37.5433 71.6321 36.7192 71.8425 35.1059C72.0529 33.4927 72.9998 31.1956 72.9823 31.0202C72.9648 30.8448 72.7719 30.0207 70.843 30.0032C68.9141 29.9856 67.2482 30.3714 67.0553 30.8799C66.8625 31.3884 66.4942 32.5458 66.2487 33.7382C65.9156 35.4917 62.391 41.7518 60.3744 45.0309C59.7256 43.7508 59.1645 42.6286 59.0417 41.7343C58.8664 40.3841 58.6559 39.5599 58.8664 37.9467C59.0768 36.3334 60.0237 34.0363 60.0062 33.8609C59.9886 33.6856 59.7957 32.8614 57.8668 32.8439C55.938 32.8263 54.2721 33.2121 54.0792 33.7206C53.8863 34.2292 53.6759 35.4216 53.2726 36.5789C52.8693 37.7362 48.1874 48.1873 46.9599 50.8877C46.3286 52.273 45.785 53.3777 45.3992 54.1317C45.3992 54.1317 45.3817 54.1843 45.3291 54.272C44.9959 54.9208 44.803 55.2715 44.803 55.2715C44.803 55.2715 44.803 55.2715 44.803 55.2891C44.54 55.7625 44.2594 56.2009 44.1192 56.2009C44.014 56.2009 43.8211 54.9384 44.1542 53.2199C44.8556 49.5901 46.5215 43.9437 46.504 43.7508C46.504 43.6456 46.8196 42.6637 45.4168 42.1551C44.049 41.6466 43.558 42.4883 43.4353 42.4883C43.3125 42.4883 43.2249 42.7864 43.2249 42.7864C43.2249 42.7864 44.7504 36.4386 40.314 36.4386C37.5434 36.4386 33.7207 39.4722 31.8269 42.2077C30.6345 42.8565 28.0919 44.2418 25.3739 45.7323C24.3393 46.311 23.2697 46.8897 22.2702 47.4333C22.2 47.3631 22.1299 47.2754 22.0597 47.2053C16.6939 41.4712 6.76895 37.4206 7.1898 29.7226C7.34762 26.9169 8.31206 19.5521 26.2507 10.6091C41.0154 3.33194 52.7641 5.3485 54.7982 9.82001C57.709 16.2029 48.503 28.0567 33.2473 29.7752C27.4255 30.424 24.3744 28.1795 23.6029 27.3378C22.7962 26.461 22.6735 26.4084 22.3754 26.5838C21.8844 26.8468 22.2 27.6359 22.3754 28.0918C22.8313 29.2842 24.7076 31.3884 27.8815 32.423C30.6871 33.3349 37.5084 33.8434 45.7675 30.652C55.0086 27.0748 62.2331 17.1322 60.1114 8.80296C57.9896 0.350937 43.9613 -2.43718 30.6871 2.27982C22.7962 5.08547 14.239 9.50437 8.0841 15.256C0.771878 22.0947 -0.385452 28.0392 0.0880017 30.5292C1.78893 39.367 13.976 45.1186 18.8508 49.3797C18.6053 49.52 18.3773 49.6427 18.1844 49.7479C15.747 50.9579 6.45332 55.8151 4.13866 60.953C1.50836 66.7747 4.55951 70.9481 6.57607 71.5092C12.8362 73.2452 19.2716 70.1239 22.7261 64.9686C26.1805 59.8132 25.7597 53.1147 24.164 50.046C24.1464 50.0109 24.1289 49.9759 24.0938 49.9408C24.7251 49.5726 25.3739 49.1868 26.0052 48.8185C27.2502 48.0821 28.4777 47.3982 29.5298 46.8371C28.9336 48.4678 28.4952 50.4143 28.2848 53.2199C28.0217 56.5165 29.372 60.7952 31.143 62.4785C31.9321 63.215 32.8615 63.2326 33.4577 63.2326C35.5269 63.2326 36.4562 61.5141 37.4908 59.48C38.7534 56.99 39.8932 54.0967 39.8932 54.0967C39.8932 54.0967 38.4728 61.9174 42.3306 61.9174C43.7334 61.9174 45.1537 60.0938 45.785 59.1644C45.785 59.1819 45.785 59.1819 45.785 59.1819C45.785 59.1819 45.8201 59.1293 45.8902 59.0066C46.0305 58.7786 46.1182 58.6383 46.1182 58.6383C46.1182 58.6383 46.1182 58.6208 46.1182 58.6032C46.6793 57.6213 47.9419 55.3943 49.8181 51.6943C52.238 46.9247 54.5702 40.9627 54.5702 40.9627C54.5702 40.9627 54.7806 42.4182 55.4996 44.838C55.9204 46.2584 56.7972 47.819 57.4986 49.3271C56.9375 50.1162 56.5868 50.5545 56.5868 50.5545C56.5868 50.5545 56.5868 50.5545 56.6043 50.5721C56.1484 51.1683 55.6574 51.8171 55.1138 52.4484C53.2024 54.7279 50.9229 57.3407 50.6072 58.0947C50.239 58.989 50.3267 59.6378 51.0281 60.1639C51.5366 60.5497 52.4484 60.6023 53.3778 60.5497C55.0963 60.4269 56.3062 60.0061 56.9024 59.743C57.8318 59.4099 58.919 58.9013 59.936 58.1473C61.8123 56.762 62.9521 54.7805 62.8469 52.1678C62.7943 50.7299 62.3208 49.292 61.7421 47.9418C61.9175 47.6963 62.0753 47.4508 62.2507 47.2053C65.2141 42.8741 67.5113 38.122 67.5113 38.122C67.5113 38.122 67.7217 39.5774 68.4406 41.9973C68.7913 43.2248 69.5103 44.5575 70.1416 45.8551C67.3534 48.1171 65.635 50.7474 65.0212 52.4659C63.9165 55.6573 64.7758 57.0952 66.4065 57.4284C67.143 57.5862 68.1951 57.2355 68.9667 56.9023C69.9487 56.5867 71.106 56.0431 72.2107 55.2365C74.087 53.8512 75.8931 51.9223 75.7879 49.3095C75.7353 48.1171 75.4197 46.9423 74.9813 45.8025C77.3486 44.8205 80.3997 44.2769 84.2926 44.7328C92.6394 45.7148 94.2877 50.9228 93.9721 53.1147C93.6564 55.3066 91.9029 56.499 91.3242 56.8672C90.7456 57.2355 90.5527 57.3582 90.6053 57.6213C90.6754 58.007 90.956 57.9895 91.447 57.9194C92.1308 57.7966 95.8308 56.1483 95.9886 52.1152C96.2516 46.9598 91.3418 41.331 82.6618 41.3836ZM18.2721 63.0923C15.5015 66.1084 11.6438 67.2482 9.97792 66.2837C8.18931 65.2491 8.89073 60.7952 12.2926 57.6037C14.3617 55.6573 17.0271 53.8512 18.7982 52.7465C19.2015 52.501 19.7977 52.1503 20.5166 51.7119C20.6394 51.6417 20.7095 51.6067 20.7095 51.6067C20.8498 51.519 20.9901 51.4313 21.1304 51.3436C22.3754 55.9028 21.183 59.9184 18.2721 63.0923ZM38.4377 49.3797C37.4733 51.7294 35.4567 57.744 34.2292 57.4108C33.1771 57.1303 32.5283 52.5711 34.0188 48.0645C34.7728 45.8025 36.3686 43.102 37.2979 42.0499C38.806 40.3665 40.4718 39.8054 40.8751 40.4893C41.3837 41.3836 39.0339 47.9067 38.4377 49.3797ZM55.0787 57.3407C54.6754 57.5511 54.2896 57.6914 54.1143 57.5862C53.9915 57.5161 54.2896 57.2355 54.2896 57.2355C54.2896 57.2355 56.3763 54.991 57.2005 53.9739C57.674 53.3777 58.2351 52.6763 58.8313 51.8872C58.8313 51.9574 58.8313 52.045 58.8313 52.1152C58.8313 54.7981 56.2361 56.6042 55.0787 57.3407ZM67.9146 54.4123C67.6165 54.2019 67.6691 53.5005 68.6686 51.3086C69.0544 50.4493 69.9662 49.0114 71.5268 47.6261C71.7022 48.1873 71.825 48.7309 71.8074 49.2394C71.7899 52.6237 69.37 53.8862 67.9146 54.4123Z" fill="#CD6799"/>
</g>
<defs>
<clipPath id="clip0">
<rect width="96.0584" height="72" fill="white"/>
</clipPath>
</defs>
</svg>
