<svg width="232" height="232" viewBox="0 0 232 232" fill="none" xmlns="http://www.w3.org/2000/svg">
<g clip-path="url(#clip0)" filter="url(#filter0_d)">
<path d="M67.5914 46C70.4496 41.0496 75.7316 38 81.4478 38L150.973 38C156.689 38 161.971 41.0496 164.829 46L199.591 106.21C202.45 111.161 202.45 117.26 199.591 122.21L164.829 182.42C161.971 187.371 156.689 190.42 150.973 190.42L81.4478 190.42C75.7316 190.42 70.4496 187.371 67.5914 182.42L32.829 122.21C29.9709 117.26 29.9709 111.161 32.829 106.21L67.5914 46Z" fill="#1D2037"/>
<g clip-path="url(#clip1)">
<path d="M153.662 119.384C150.313 119.401 147.402 120.208 144.964 121.4C144.07 119.629 143.176 118.051 143.018 116.894C142.842 115.543 142.632 114.719 142.842 113.106C143.053 111.493 144 109.196 143.982 109.02C143.965 108.845 143.772 108.021 141.843 108.003C139.914 107.986 138.248 108.371 138.055 108.88C137.862 109.388 137.494 110.546 137.249 111.738C136.916 113.492 133.391 119.752 131.374 123.031C130.726 121.751 130.164 120.629 130.042 119.734C129.866 118.384 129.656 117.56 129.866 115.947C130.077 114.333 131.024 112.036 131.006 111.861C130.989 111.686 130.796 110.861 128.867 110.844C126.938 110.826 125.272 111.212 125.079 111.721C124.886 112.229 124.676 113.422 124.273 114.579C123.869 115.736 119.187 126.187 117.96 128.888C117.329 130.273 116.785 131.378 116.399 132.132C116.399 132.132 116.382 132.184 116.329 132.272C115.996 132.921 115.803 133.272 115.803 133.272C115.803 133.272 115.803 133.272 115.803 133.289C115.54 133.763 115.259 134.201 115.119 134.201C115.014 134.201 114.821 132.938 115.154 131.22C115.856 127.59 117.522 121.944 117.504 121.751C117.504 121.646 117.82 120.664 116.417 120.155C115.049 119.647 114.558 120.488 114.435 120.488C114.313 120.488 114.225 120.786 114.225 120.786C114.225 120.786 115.75 114.439 111.314 114.439C108.543 114.439 104.721 117.472 102.827 120.208C101.635 120.857 99.0919 122.242 96.3739 123.732C95.3393 124.311 94.2697 124.89 93.2702 125.433C93.2 125.363 93.1299 125.275 93.0597 125.205C87.6939 119.471 77.769 115.421 78.1898 107.723C78.3476 104.917 79.3121 97.5521 97.2507 88.6091C112.015 81.3319 123.764 83.3485 125.798 87.82C128.709 94.2029 119.503 106.057 104.247 107.775C98.4255 108.424 95.3744 106.179 94.6029 105.338C93.7962 104.461 93.6735 104.408 93.3754 104.584C92.8844 104.847 93.2 105.636 93.3754 106.092C93.8313 107.284 95.7076 109.388 98.8815 110.423C101.687 111.335 108.508 111.843 116.767 108.652C126.009 105.075 133.233 95.1322 131.111 86.803C128.99 78.3509 114.961 75.5628 101.687 80.2798C93.7962 83.0855 85.239 87.5044 79.0841 93.256C71.7719 100.095 70.6145 106.039 71.088 108.529C72.7889 117.367 84.976 123.119 89.8508 127.38C89.6053 127.52 89.3773 127.643 89.1844 127.748C86.747 128.958 77.4533 133.815 75.1387 138.953C72.5084 144.775 75.5595 148.948 77.5761 149.509C83.8362 151.245 90.2716 148.124 93.7261 142.969C97.1805 137.813 96.7597 131.115 95.164 128.046C95.1464 128.011 95.1289 127.976 95.0938 127.941C95.7251 127.573 96.3739 127.187 97.0052 126.819C98.2502 126.082 99.4777 125.398 100.53 124.837C99.9336 126.468 99.4952 128.414 99.2848 131.22C99.0217 134.517 100.372 138.795 102.143 140.479C102.932 141.215 103.861 141.233 104.458 141.233C106.527 141.233 107.456 139.514 108.491 137.48C109.753 134.99 110.893 132.097 110.893 132.097C110.893 132.097 109.473 139.917 113.331 139.917C114.733 139.917 116.154 138.094 116.785 137.164C116.785 137.182 116.785 137.182 116.785 137.182C116.785 137.182 116.82 137.129 116.89 137.007C117.031 136.779 117.118 136.638 117.118 136.638C117.118 136.638 117.118 136.621 117.118 136.603C117.679 135.621 118.942 133.394 120.818 129.694C123.238 124.925 125.57 118.963 125.57 118.963C125.57 118.963 125.781 120.418 126.5 122.838C126.92 124.258 127.797 125.819 128.499 127.327C127.937 128.116 127.587 128.555 127.587 128.555C127.587 128.555 127.587 128.555 127.604 128.572C127.148 129.168 126.657 129.817 126.114 130.448C124.202 132.728 121.923 135.341 121.607 136.095C121.239 136.989 121.327 137.638 122.028 138.164C122.537 138.55 123.448 138.602 124.378 138.55C126.096 138.427 127.306 138.006 127.902 137.743C128.832 137.41 129.919 136.901 130.936 136.147C132.812 134.762 133.952 132.781 133.847 130.168C133.794 128.73 133.321 127.292 132.742 125.942C132.918 125.696 133.075 125.451 133.251 125.205C136.214 120.874 138.511 116.122 138.511 116.122C138.511 116.122 138.722 117.577 139.441 119.997C139.791 121.225 140.51 122.557 141.142 123.855C138.353 126.117 136.635 128.747 136.021 130.466C134.917 133.657 135.776 135.095 137.407 135.428C138.143 135.586 139.195 135.235 139.967 134.902C140.949 134.587 142.106 134.043 143.211 133.236C145.087 131.851 146.893 129.922 146.788 127.31C146.735 126.117 146.42 124.942 145.981 123.802C148.349 122.82 151.4 122.277 155.293 122.733C163.639 123.715 165.288 128.923 164.972 131.115C164.656 133.307 162.903 134.499 162.324 134.867C161.746 135.235 161.553 135.358 161.605 135.621C161.675 136.007 161.956 135.99 162.447 135.919C163.131 135.797 166.831 134.148 166.989 130.115C167.252 124.96 162.342 119.331 153.662 119.384ZM89.2721 141.092C86.5015 144.108 82.6438 145.248 80.9779 144.284C79.1893 143.249 79.8907 138.795 83.2926 135.604C85.3617 133.657 88.0271 131.851 89.7982 130.746C90.2015 130.501 90.7977 130.15 91.5166 129.712C91.6394 129.642 91.7095 129.607 91.7095 129.607C91.8498 129.519 91.9901 129.431 92.1304 129.344C93.3754 133.903 92.183 137.918 89.2721 141.092ZM109.438 127.38C108.473 129.729 106.457 135.744 105.229 135.411C104.177 135.13 103.528 130.571 105.019 126.065C105.773 123.802 107.369 121.102 108.298 120.05C109.806 118.367 111.472 117.805 111.875 118.489C112.384 119.384 110.034 125.907 109.438 127.38ZM126.079 135.341C125.675 135.551 125.29 135.691 125.114 135.586C124.992 135.516 125.29 135.235 125.29 135.235C125.29 135.235 127.376 132.991 128.201 131.974C128.674 131.378 129.235 130.676 129.831 129.887C129.831 129.957 129.831 130.045 129.831 130.115C129.831 132.798 127.236 134.604 126.079 135.341ZM138.915 132.412C138.616 132.202 138.669 131.5 139.669 129.309C140.054 128.449 140.966 127.011 142.527 125.626C142.702 126.187 142.825 126.731 142.807 127.239C142.79 130.624 140.37 131.886 138.915 132.412Z" fill="#CD6799"/>
</g>
</g>
<defs>
<filter id="filter0_d" x="0" y="0" width="232" height="232" filterUnits="userSpaceOnUse" color-interpolation-filters="sRGB">
<feFlood flood-opacity="0" result="BackgroundImageFix"/>
<feColorMatrix in="SourceAlpha" type="matrix" values="0 0 0 0 0 0 0 0 0 0 0 0 0 0 0 0 0 0 127 0"/>
<feOffset dy="2"/>
<feGaussianBlur stdDeviation="10"/>
<feColorMatrix type="matrix" values="0 0 0 0 0 0 0 0 0 0 0 0 0 0 0 0 0 0 0.375 0"/>
<feBlend mode="normal" in2="BackgroundImageFix" result="effect1_dropShadow"/>
<feBlend mode="normal" in="SourceGraphic" in2="effect1_dropShadow" result="shape"/>
</filter>
<clipPath id="clip0">
<rect width="192" height="192" fill="white" transform="translate(20 18)"/>
</clipPath>
<clipPath id="clip1">
<rect width="96.0584" height="72" fill="white" transform="translate(71 78)"/>
</clipPath>
</defs>
</svg>
