<svg width="118" height="132" viewBox="0 0 118 132" fill="none" xmlns="http://www.w3.org/2000/svg">
<g clip-path="url(#clip0)">
<path d="M115.807 98.9998C116.727 97.4056 117.299 95.6093 117.299 93.9962V38.0035C117.299 36.3904 116.728 34.5945 115.807 33.0002L58.6497 66L115.807 98.9998Z" fill="#00599C"/>
<path d="M63.7288 130.79L112.22 102.794C113.617 101.987 114.887 100.594 115.807 98.9998L58.6496 66L1.49231 99.0002C2.41269 100.594 3.68266 101.987 5.07914 102.794L53.5705 130.79C56.3638 132.403 60.9354 132.403 63.7288 130.79Z" fill="#004482"/>
<path d="M115.807 32.9998C114.887 31.4052 113.617 30.0125 112.22 29.206L63.7288 1.20979C60.9354 -0.403264 56.3638 -0.403264 53.5705 1.20979L5.07913 29.206C2.28542 30.8187 0 34.7777 0 38.0034V93.9962C0 95.6092 0.571546 97.4055 1.49231 98.9998L58.6496 66L115.807 32.9998Z" fill="#659AD2"/>
<path d="M58.6497 105.1C37.09 105.1 19.5499 87.5596 19.5499 65.9999C19.5499 44.4402 37.09 26.9001 58.6497 26.9001C72.5615 26.9001 85.5361 34.3866 92.5097 46.4377L75.5883 56.2295C72.0981 50.1975 65.6071 46.45 58.6497 46.45C47.8696 46.45 39.0998 55.2199 39.0998 65.9999C39.0998 76.7795 47.8696 85.5498 58.6497 85.5498C65.6079 85.5498 72.0988 81.8023 75.5895 75.7691L92.5108 85.5605C85.5373 97.6128 72.5623 105.1 58.6497 105.1Z" fill="white"/>
<path d="M97.7493 63.8277H93.4046V59.4834H89.0607V63.8277H84.7161V68.172H89.0607V72.5167H93.4046V68.172H97.7493V63.8277Z" fill="white"/>
<path d="M114.041 63.8277H109.696V59.4834H105.352V63.8277H101.008V68.172H105.352V72.5167H109.696V68.172H114.041V63.8277Z" fill="white"/>
</g>
<defs>
<clipPath id="clip0">
<rect width="117.299" height="132" fill="white"/>
</clipPath>
</defs>
</svg>
