<svg width="232" height="232" viewBox="0 0 232 232" fill="none" xmlns="http://www.w3.org/2000/svg">
<g clip-path="url(#clip0)" filter="url(#filter0_d)">
<path d="M67.5914 46C70.4496 41.0496 75.7316 38 81.4478 38L150.973 38C156.689 38 161.971 41.0496 164.829 46L199.591 106.21C202.45 111.161 202.45 117.26 199.591 122.21L164.829 182.42C161.971 187.371 156.689 190.42 150.973 190.42L81.4478 190.42C75.7316 190.42 70.4496 187.371 67.5914 182.42L32.829 122.21C29.9709 117.26 29.9709 111.161 32.829 106.21L67.5914 46Z" fill="#1D2037"/>
<g clip-path="url(#clip1)">
<path d="M172.807 147C173.727 145.406 174.299 143.609 174.299 141.996V86.0035C174.299 84.3904 173.728 82.5945 172.807 81.0002L115.65 114L172.807 147Z" fill="#00599C"/>
<path d="M120.729 178.79L169.22 150.794C170.617 149.987 171.887 148.594 172.807 147L115.65 114L58.4923 147C59.4127 148.594 60.6827 149.987 62.0791 150.794L110.57 178.79C113.364 180.403 117.935 180.403 120.729 178.79Z" fill="#004482"/>
<path d="M172.807 80.9998C171.887 79.4052 170.617 78.0125 169.22 77.206L120.729 49.2098C117.935 47.5967 113.364 47.5967 110.57 49.2098L62.0791 77.206C59.2854 78.8187 57 82.7777 57 86.0034V141.996C57 143.609 57.5715 145.406 58.4923 147L115.65 114L172.807 80.9998Z" fill="#659AD2"/>
<path d="M115.65 153.1C94.09 153.1 76.5499 135.56 76.5499 114C76.5499 92.4402 94.09 74.9001 115.65 74.9001C129.562 74.9001 142.536 82.3866 149.51 94.4377L132.588 104.23C129.098 98.1975 122.607 94.45 115.65 94.45C104.87 94.45 96.0998 103.22 96.0998 114C96.0998 124.78 104.87 133.55 115.65 133.55C122.608 133.55 129.099 129.802 132.589 123.769L149.511 133.56C142.537 145.613 129.562 153.1 115.65 153.1Z" fill="white"/>
<path d="M154.749 111.828H150.405V107.483H146.061V111.828H141.716V116.172H146.061V120.517H150.405V116.172H154.749V111.828Z" fill="white"/>
<path d="M171.041 111.828H166.696V107.483H162.352V111.828H158.008V116.172H162.352V120.517H166.696V116.172H171.041V111.828Z" fill="white"/>
</g>
</g>
<defs>
<filter id="filter0_d" x="0" y="0" width="232" height="232" filterUnits="userSpaceOnUse" color-interpolation-filters="sRGB">
<feFlood flood-opacity="0" result="BackgroundImageFix"/>
<feColorMatrix in="SourceAlpha" type="matrix" values="0 0 0 0 0 0 0 0 0 0 0 0 0 0 0 0 0 0 127 0"/>
<feOffset dy="2"/>
<feGaussianBlur stdDeviation="10"/>
<feColorMatrix type="matrix" values="0 0 0 0 0 0 0 0 0 0 0 0 0 0 0 0 0 0 0.375 0"/>
<feBlend mode="normal" in2="BackgroundImageFix" result="effect1_dropShadow"/>
<feBlend mode="normal" in="SourceGraphic" in2="effect1_dropShadow" result="shape"/>
</filter>
<clipPath id="clip0">
<rect width="192" height="192" fill="white" transform="translate(20 18)"/>
</clipPath>
<clipPath id="clip1">
<rect width="117.299" height="132" fill="white" transform="translate(57 48)"/>
</clipPath>
</defs>
</svg>
