<svg width="232" height="232" viewBox="0 0 232 232" fill="none" xmlns="http://www.w3.org/2000/svg">
<g clip-path="url(#clip0)" filter="url(#filter0_d)">
<path d="M67.5914 46C70.4496 41.0496 75.7316 38 81.4478 38L150.973 38C156.689 38 161.971 41.0496 164.829 46L199.591 106.21C202.45 111.161 202.45 117.26 199.591 122.21L164.829 182.42C161.971 187.371 156.689 190.42 150.973 190.42L81.4478 190.42C75.7316 190.42 70.4496 187.371 67.5914 182.42L32.829 122.21C29.9709 117.26 29.9709 111.161 32.829 106.21L67.5914 46Z" fill="#1D2037"/>
<g clip-path="url(#clip1)">
<path d="M122.294 79.3838V94.7691L148.94 110.154V94.7691L122.294 79.3838ZM69 94.7691V110.154L82.323 117.846V102.462L69 94.7691ZM108.969 102.462L95.6461 110.154V156.307L108.969 164V133.231L122.294 140.924V125.538L108.969 117.846V102.462Z" fill="#E55B2D"/>
<path d="M122.294 79.3838L82.323 102.462V117.846L108.969 102.462V117.846L122.294 110.154V79.3838ZM162.264 87.0765L148.94 94.7691V110.154L162.264 102.462V87.0765ZM135.617 117.846L122.294 125.538V140.924L135.617 133.231V117.846ZM122.294 140.924L108.969 133.231V164L122.294 156.307V140.924Z" fill="#ED8E24"/>
<path d="M122.294 64L69 94.7691L82.323 102.462L122.294 79.3838L148.94 94.7691L162.265 87.0764L122.294 64ZM122.294 110.154L108.969 117.846L122.294 125.538L135.617 117.846L122.294 110.154Z" fill="#F8BF3C"/>
</g>
</g>
<defs>
<filter id="filter0_d" x="0" y="0" width="232" height="232" filterUnits="userSpaceOnUse" color-interpolation-filters="sRGB">
<feFlood flood-opacity="0" result="BackgroundImageFix"/>
<feColorMatrix in="SourceAlpha" type="matrix" values="0 0 0 0 0 0 0 0 0 0 0 0 0 0 0 0 0 0 127 0"/>
<feOffset dy="2"/>
<feGaussianBlur stdDeviation="10"/>
<feColorMatrix type="matrix" values="0 0 0 0 0 0 0 0 0 0 0 0 0 0 0 0 0 0 0.375 0"/>
<feBlend mode="normal" in2="BackgroundImageFix" result="effect1_dropShadow"/>
<feBlend mode="normal" in="SourceGraphic" in2="effect1_dropShadow" result="shape"/>
</filter>
<clipPath id="clip0">
<rect width="192" height="192" fill="white" transform="translate(20 18)"/>
</clipPath>
<clipPath id="clip1">
<rect width="93.2645" height="100" fill="white" transform="translate(69 64)"/>
</clipPath>
</defs>
</svg>
