<svg width="232" height="232" viewBox="0 0 232 232" fill="none" xmlns="http://www.w3.org/2000/svg">
<path d="M122.294 79.3838V94.7691L148.94 110.154V94.7691L122.294 79.3838ZM69 94.7691V110.154L82.323 117.846V102.462L69 94.7691ZM108.969 102.462L95.6461 110.154V156.307L108.969 164V133.231L122.294 140.924V125.538L108.969 117.846V102.462Z" fill="#E55B2D"/>
<path d="M122.294 79.3838L82.323 102.462V117.846L108.969 102.462V117.846L122.294 110.154V79.3838ZM162.264 87.0765L148.94 94.7691V110.154L162.264 102.462V87.0765ZM135.617 117.846L122.294 125.538V140.924L135.617 133.231V117.846ZM122.294 140.924L108.969 133.231V164L122.294 156.307V140.924Z" fill="#ED8E24"/>
<path d="M122.294 64L69 94.7691L82.323 102.462L122.294 79.3838L148.94 94.7691L162.265 87.0764L122.294 64ZM122.294 110.154L108.969 117.846L122.294 125.538L135.617 117.846L122.294 110.154Z" fill="#F8BF3C"/>
</svg>
