<svg width="94" height="100" viewBox="0 0 94 100" fill="none" xmlns="http://www.w3.org/2000/svg">
<g clip-path="url(#clip0)">
<path d="M53.2938 15.3838V30.7691L79.9399 46.1545V30.7691L53.2938 15.3838ZM0 30.7691V46.1545L13.323 53.8456V38.4618L0 30.7691ZM39.9691 38.4618L26.6461 46.1545V92.3073L39.9691 100V69.2309L53.2938 76.9236V61.5382L39.9691 53.8456V38.4618Z" fill="#E55B2D"/>
<path d="M53.2937 15.3838L13.323 38.4618V53.8456L39.9691 38.4618V53.8456L53.2937 46.1545V15.3838ZM93.2645 23.0765L79.9398 30.7691V46.1545L93.2645 38.4618V23.0765ZM66.6168 53.8456L53.2937 61.5382V76.9236L66.6168 69.2309V53.8456ZM53.2937 76.9236L39.9691 69.2309V100L53.2937 92.3073V76.9236Z" fill="#ED8E24"/>
<path d="M53.2938 0L0 30.7691L13.323 38.4618L53.2938 15.3838L79.9399 30.7691L93.2645 23.0764L53.2938 0ZM53.2938 46.1545L39.9692 53.8455L53.2938 61.5382L66.6168 53.8455L53.2938 46.1545Z" fill="#F8BF3C"/>
</g>
<defs>
<clipPath id="clip0">
<rect width="93.2645" height="100" fill="white"/>
</clipPath>
</defs>
</svg>
