<svg width="232" height="232" viewBox="0 0 232 232" fill="none" xmlns="http://www.w3.org/2000/svg">
<path d="M115.291 164.096C113.957 164.096 112.632 163.746 111.463 163.073L99.2794 155.86C97.4597 154.842 98.3476 154.482 98.9478 154.275C101.374 153.425 101.867 153.233 104.456 151.762C104.729 151.607 105.085 151.662 105.363 151.826L114.723 157.381C115.061 157.563 115.541 157.563 115.854 157.381L152.35 136.315C152.688 136.123 152.907 135.73 152.907 135.328V93.2145C152.907 92.7943 152.688 92.4197 152.342 92.2096L115.862 71.1619C115.524 70.9609 115.076 70.9609 114.738 71.1619L78.2647 92.2096C77.9112 92.4106 77.6865 92.8034 77.6865 93.2053V135.319C77.6865 135.721 77.9057 136.105 78.2529 136.296L88.2468 142.07C93.6731 144.783 96.9892 141.586 96.9892 138.37V96.8046C96.9892 96.2108 97.4551 95.7541 98.0489 95.7541H102.671C103.247 95.7541 103.722 96.2108 103.722 96.8046V138.388C103.722 145.624 99.7755 149.78 92.9149 149.78C90.8047 149.78 89.1421 149.78 84.5014 147.496L74.9276 141.979C72.5616 140.608 71.1 138.05 71.1 135.319V93.2053C71.1 90.4647 72.5616 87.9069 74.9276 86.5548L111.459 65.4798C113.771 64.1734 116.84 64.1734 119.133 65.4798L155.619 86.564C157.976 87.9251 159.447 90.4739 159.447 93.2145V135.328C159.447 138.06 157.976 140.608 155.619 141.979L119.133 163.054C117.964 163.73 116.639 164.077 115.287 164.077" fill="#689F63"/>
<path d="M126.564 135.081C110.596 135.081 107.248 127.751 107.248 121.603C107.248 121.018 107.719 120.553 108.304 120.553H113.018C113.539 120.553 113.977 120.932 114.06 121.446C114.772 126.249 116.892 128.672 126.547 128.672C134.239 128.672 137.51 126.934 137.51 122.856C137.51 120.508 136.578 118.763 124.629 117.594C114.635 116.607 108.46 114.405 108.46 106.412C108.46 99.049 114.672 94.664 125.077 94.664C136.76 94.664 142.552 98.7201 143.283 107.435C143.31 107.737 143.201 108.029 143 108.248C142.799 108.458 142.516 108.586 142.223 108.586H137.482C136.989 108.586 136.56 108.239 136.459 107.764C135.317 102.712 132.558 101.095 125.058 101.095C116.663 101.095 115.686 104.019 115.686 106.211C115.686 108.869 116.837 109.646 128.164 111.144C139.382 112.633 144.708 114.734 144.708 122.618C144.708 130.566 138.076 135.124 126.511 135.124L126.564 135.081ZM170.962 90.4618H172.187C173.191 90.4618 173.383 89.7584 173.383 89.3473C173.383 88.2693 172.643 88.2693 172.232 88.2693H170.972L170.962 90.4618ZM169.473 87.0086H172.187C173.118 87.0086 174.945 87.0086 174.945 89.0915C174.945 90.544 174.014 90.8455 173.456 91.0282C174.543 91.1012 174.617 91.8138 174.763 92.8187C174.836 93.449 174.955 94.5361 175.174 94.9015H173.502C173.456 94.5361 173.201 92.5264 173.201 92.4167C173.091 91.9691 172.936 91.7499 172.378 91.7499H170.999V94.9107H169.473V87.0086ZM166.212 90.9368C166.212 94.2073 168.852 96.8565 172.095 96.8565C175.366 96.8565 178.006 94.1524 178.006 90.9368C178.006 87.6572 175.329 85.0537 172.086 85.0537C168.889 85.0537 166.203 87.6207 166.203 90.9277L166.212 90.9368ZM179.138 90.9551C179.138 94.8284 175.969 97.9893 172.104 97.9893C168.268 97.9893 165.07 94.865 165.07 90.9551C165.07 86.9721 168.341 83.9209 172.104 83.9209C175.895 83.9209 179.129 86.9812 179.129 90.9551" fill="#689F63"/>
</svg>
