<svg width="110" height="110" viewBox="0 0 110 110" fill="none" xmlns="http://www.w3.org/2000/svg">
<path d="M45.2908 105.096C43.957 105.096 42.6324 104.746 41.4631 104.073L29.2794 96.8597C27.4597 95.842 28.3476 95.4821 28.9478 95.2747C31.3741 94.4251 31.8665 94.2333 34.4564 92.7625C34.7286 92.6072 35.0849 92.662 35.3635 92.8264L44.7235 98.3807C45.0615 98.5634 45.5411 98.5634 45.8544 98.3807L82.3496 77.3147C82.6876 77.1229 82.9069 76.7301 82.9069 76.3281V34.2145C82.9069 33.7943 82.6877 33.4197 82.3423 33.2096L45.8617 12.1619C45.5237 11.9609 45.0761 11.9609 44.7381 12.1619L8.26474 33.2096C7.91121 33.4106 7.68648 33.8034 7.68648 34.2053V76.319C7.68648 76.7209 7.90573 77.1046 8.25286 77.2965L18.2468 83.07C23.6731 85.7831 26.9892 82.5858 26.9892 79.3702V37.8046C26.9892 37.2108 27.4551 36.7541 28.0489 36.7541H32.6713C33.2469 36.7541 33.7219 37.2108 33.7219 37.8046V79.3884C33.7219 86.6236 29.7755 90.7801 22.9149 90.7801C20.8047 90.7801 19.1421 90.7801 14.5014 88.4963L4.92764 82.9786C2.56162 81.6083 1.09998 79.0504 1.09998 76.319V34.2053C1.09998 31.4647 2.56162 28.9069 4.92764 27.5548L41.4594 6.47976C43.7707 5.17341 46.8401 5.17341 49.133 6.47976L85.6191 27.564C87.976 28.9251 89.4468 31.4739 89.4468 34.2145V76.3281C89.4468 79.0596 87.976 81.6083 85.6191 82.9786L49.133 104.054C47.9637 104.73 46.6391 105.077 45.2871 105.077" fill="#689F63"/>
<path d="M56.5638 76.0813C40.5956 76.0813 37.2476 68.7512 37.2476 62.6031C37.2476 62.0185 37.7189 61.5525 38.3045 61.5525H43.0182C43.5389 61.5525 43.9774 61.9317 44.0596 62.446C44.7722 67.2493 46.8915 69.672 56.5474 69.672C64.2392 69.672 67.5096 67.9345 67.5096 63.8556C67.5096 61.5078 66.5778 59.7629 54.629 58.5936C44.6352 57.607 38.4598 55.4054 38.4598 47.412C38.4598 40.049 44.6717 35.664 55.0766 35.664C66.7605 35.664 72.5522 39.7201 73.283 48.4352C73.3104 48.7366 73.2008 49.029 72.9998 49.2482C72.7988 49.4583 72.5156 49.5862 72.2233 49.5862H67.4822C66.9889 49.5862 66.5595 49.2391 66.459 48.764C65.3171 43.7122 62.5583 42.0953 55.0584 42.0953C46.6632 42.0953 45.6857 45.0186 45.6857 47.211C45.6857 49.8694 46.8367 50.6459 58.1643 52.1441C69.3823 53.6332 74.7081 55.7343 74.7081 63.618C74.7081 71.5658 68.076 76.1243 56.5109 76.1243L56.5638 76.0813ZM100.962 31.4618H102.187C103.191 31.4618 103.383 30.7584 103.383 30.3473C103.383 29.2693 102.643 29.2693 102.232 29.2693H100.972L100.962 31.4618ZM99.4735 28.0086H102.187C103.118 28.0086 104.945 28.0086 104.945 30.0915C104.945 31.544 104.014 31.8455 103.456 32.0282C104.543 32.1012 104.617 32.8138 104.763 33.8187C104.836 34.449 104.955 35.5361 105.174 35.9015H103.502C103.456 35.5361 103.201 33.5264 103.201 33.4167C103.091 32.9691 102.936 32.7499 102.378 32.7499H100.999V35.9107H99.4735V28.0086ZM96.2122 31.9368C96.2122 35.2073 98.8523 37.8565 102.095 37.8565C105.366 37.8565 108.006 35.1524 108.006 31.9368C108.006 28.6572 105.329 26.0537 102.086 26.0537C98.8888 26.0537 96.2031 28.6207 96.2031 31.9277L96.2122 31.9368ZM109.138 31.9551C109.138 35.8284 105.969 38.9893 102.104 38.9893C98.2676 38.9893 95.0703 35.865 95.0703 31.9551C95.0703 27.9721 98.3407 24.9209 102.104 24.9209C105.895 24.9209 109.129 27.9812 109.129 31.9551" fill="#689F63"/>
</svg>
