<svg width="101" height="100" viewBox="0 0 101 100" fill="none" xmlns="http://www.w3.org/2000/svg">
<g clip-path="url(#clip0)">
<path d="M49.8993 0C24.3802 1.82073e-06 25.9738 11.0666 25.9738 11.0666L26.0022 22.5315H50.3545V25.9738H16.3296C16.3296 25.9738 -6.10352e-05 24.1219 -6.10352e-05 49.8709C-6.28559e-05 75.6199 14.2528 74.7068 14.2528 74.7068H22.7591V62.7583C22.7591 62.7583 22.3005 48.5054 36.7844 48.5054C51.2682 48.5054 60.9375 48.5054 60.9375 48.5054C60.9375 48.5054 74.5076 48.7247 74.5076 35.3904C74.5076 22.0561 74.5076 13.3425 74.5076 13.3425C74.5076 13.3425 76.5679 0 49.8993 0ZM36.4714 7.70965C38.8943 7.70965 40.8526 9.66791 40.8526 12.0908C40.8526 14.5137 38.8943 16.4719 36.4714 16.4719C34.0485 16.4719 32.0903 14.5137 32.0903 12.0908C32.0903 9.66791 34.0485 7.70965 36.4714 7.70965Z" fill="url(#paint0_linear)"/>
<path d="M50.624 99.9999C76.1431 99.9999 74.5495 88.9332 74.5495 88.9332L74.5211 77.4683H50.1688V74.026H84.1937C84.1937 74.026 100.523 75.878 100.523 50.1289C100.523 24.38 86.2705 25.2931 86.2705 25.2931H77.7643V37.2416C77.7643 37.2416 78.2228 51.4945 63.739 51.4945C49.2551 51.4945 39.5858 51.4945 39.5858 51.4945C39.5858 51.4945 26.0157 51.2751 26.0157 64.6094C26.0157 77.9437 26.0157 86.6573 26.0157 86.6573C26.0157 86.6573 23.9554 99.9999 50.624 99.9999ZM64.0519 92.2902C61.629 92.2902 59.6708 90.332 59.6708 87.9091C59.6708 85.4862 61.629 83.528 64.0519 83.528C66.4748 83.528 68.433 85.4862 68.433 87.9091C68.433 90.332 66.4748 92.2902 64.0519 92.2902Z" fill="url(#paint1_linear)"/>
</g>
<defs>
<linearGradient id="paint0_linear" x1="9.66043" y1="8.74089" x2="59.3664" y2="58.6131" gradientUnits="userSpaceOnUse">
<stop stop-color="#387EB8"/>
<stop offset="1" stop-color="#366994"/>
</linearGradient>
<linearGradient id="paint1_linear" x1="40.2373" y1="40.4672" x2="93.6217" y2="91.6121" gradientUnits="userSpaceOnUse">
<stop stop-color="#FFE052"/>
<stop offset="1" stop-color="#FFC331"/>
</linearGradient>
<clipPath id="clip0">
<rect width="100.523" height="100" fill="white"/>
</clipPath>
</defs>
</svg>
