<svg width="96" height="96" viewBox="0 0 96 96" fill="none" xmlns="http://www.w3.org/2000/svg">
<path d="M0 48V96H48H96V48V0H48H0V48ZM77.3638 44.1752C79.8019 44.7848 81.6609 45.8667 83.3676 47.6343C84.2514 48.579 85.5619 50.301 85.6686 50.7124C85.699 50.8343 81.5238 53.6381 78.9943 55.2076C78.9029 55.2686 78.5371 54.8724 78.1257 54.2629C76.8914 52.4648 75.5962 51.6876 73.6152 51.5505C70.7048 51.3524 68.8305 52.8762 68.8457 55.421C68.8457 56.1676 68.9524 56.6095 69.2571 57.219C69.8971 58.5448 71.0857 59.3371 74.819 60.9524C81.6914 63.9086 84.6324 65.859 86.461 68.6324C88.5029 71.7257 88.96 76.6629 87.5733 80.3352C86.0495 84.3276 82.2705 87.04 76.9524 87.939C75.3067 88.2286 71.4057 88.1829 69.6381 87.8629C65.7829 87.1771 62.1257 85.2724 59.8705 82.7733C58.9867 81.7981 57.2648 79.2533 57.3714 79.0705C57.4171 79.0095 57.8133 78.7657 58.2552 78.5067C58.6819 78.2629 60.2971 77.3333 61.821 76.4495L64.579 74.8495L65.1581 75.7029C65.9657 76.9371 67.7333 78.6286 68.8 79.1924C71.8629 80.8076 76.0686 80.579 78.141 78.72C79.0248 77.9124 79.3905 77.0743 79.3905 75.84C79.3905 74.7276 79.2533 74.24 78.6743 73.4019C77.9276 72.3352 76.4038 71.4362 72.0762 69.5619C67.1238 67.4286 64.9905 66.1029 63.04 64C61.9124 62.781 60.8457 60.8305 60.4038 59.2C60.0381 57.8438 59.9467 54.4457 60.2362 53.0743C61.2571 48.2895 64.8686 44.9524 70.08 43.9619C71.7714 43.6419 75.7029 43.7638 77.3638 44.1752ZM54.8267 48.1829L54.8571 52.1143H48.6095H42.3619V69.8667V87.619H37.9429H33.5238V69.8667V52.1143H27.2762H21.0286V48.259C21.0286 46.1257 21.0743 44.3429 21.1352 44.2971C21.181 44.2362 28.7848 44.2057 38.0038 44.221L54.781 44.2667L54.8267 48.1829Z" fill="#007ACC"/>
</svg>
