<svg width="232" height="232" viewBox="0 0 232 232" fill="none" xmlns="http://www.w3.org/2000/svg">
<path d="M73 114V157H116H159V114V71H116H73V114ZM142.305 110.574C144.489 111.12 146.155 112.089 147.683 113.672C148.475 114.519 149.649 116.061 149.745 116.43C149.772 116.539 146.032 119.051 143.766 120.457C143.684 120.511 143.356 120.157 142.988 119.61C141.882 118 140.722 117.303 138.947 117.181C136.34 117.003 134.661 118.368 134.674 120.648C134.674 121.317 134.77 121.713 135.043 122.259C135.616 123.446 136.681 124.156 140.025 125.603C146.182 128.251 148.817 129.999 150.455 132.483C152.284 135.254 152.693 139.677 151.451 142.967C150.086 146.543 146.701 148.973 141.937 149.779C140.462 150.038 136.968 149.997 135.384 149.71C131.93 149.096 128.654 147.39 126.634 145.151C125.842 144.277 124.3 141.998 124.395 141.834C124.436 141.779 124.791 141.561 125.187 141.329C125.569 141.11 127.016 140.278 128.381 139.486L130.852 138.053L131.371 138.817C132.094 139.923 133.678 141.438 134.633 141.943C137.377 143.39 141.145 143.185 143.001 141.52C143.793 140.797 144.121 140.046 144.121 138.94C144.121 137.943 143.998 137.507 143.479 136.756C142.81 135.8 141.445 134.995 137.568 133.316C133.132 131.405 131.221 130.217 129.473 128.333C128.463 127.241 127.508 125.494 127.112 124.033C126.784 122.818 126.702 119.774 126.962 118.546C127.876 114.259 131.111 111.27 135.78 110.383C137.295 110.096 140.817 110.205 142.305 110.574ZM122.116 114.164L122.143 117.686H116.546H110.949V133.589V149.492H106.99H103.032V133.589V117.686H97.4349H91.8381V114.232C91.8381 112.321 91.879 110.724 91.9337 110.683C91.9746 110.628 98.7863 110.601 107.045 110.615L122.075 110.656L122.116 114.164Z" fill="#007ACC"/>
</svg>
