<svg width="80" height="112" viewBox="0 0 80 112" fill="none" xmlns="http://www.w3.org/2000/svg">
<g clip-path="url(#clip0)">
<path d="M0.266968 21.886L0.279479 22.8869C0.286373 23.4374 1.88123 41.6638 3.82366 63.3898L7.35532 102.892L23.2285 107.336C31.9587 109.78 39.2818 111.793 39.502 111.808C39.7222 111.823 47.142 109.831 55.9905 107.381C70.1773 103.453 72.0924 102.862 72.194 102.375C72.3356 101.698 79.2829 23.325 79.2757 22.4865L79.2707 21.886H39.7686H0.266968Z" fill="white"/>
<path d="M23.3542 107.602L7.33988 103.126L7.13061 101.941C6.94458 100.888 0 23.3241 0 22.2993C0 21.9283 4.05475 21.8862 39.7688 21.8862C77.4671 21.8862 79.5375 21.9105 79.5346 22.3533C79.522 24.2657 72.3338 102.857 72.1572 103.013C71.9339 103.211 40.938 111.846 39.9023 111.999C39.6087 112.043 32.162 110.064 23.3542 107.602ZM49.8667 91.7852C55.2493 90.3007 59.7309 89.0095 59.8258 88.916C59.9207 88.8224 60.5506 82.4403 61.2255 74.7334C61.9004 67.0265 62.5207 60.2104 62.604 59.5865L62.7553 58.4522H51.1286H39.5019V63.3899V68.3277H45.7793H52.0566L51.9317 68.9282C51.863 69.2585 51.5961 72.0969 51.3385 75.2358C51.0655 78.5617 50.7419 81.071 50.5628 81.2501C50.3938 81.4191 47.836 82.2023 44.8787 82.9905L39.5019 84.4236V89.454C39.5019 92.8874 39.5937 94.4843 39.791 94.4843C39.9501 94.4843 44.4841 93.2697 49.8667 91.7852ZM62.6023 52.2467C62.4259 50.9388 60.8543 33.3973 60.8543 32.7359C60.8543 32.3341 59.9303 32.2955 50.3116 32.2955H39.7688V37.4589V42.6222L44.5064 42.8048C47.112 42.9052 49.8542 43.0581 50.6002 43.1445L51.9564 43.3015L52.2856 47.3404C52.4667 49.5617 52.6825 51.8296 52.7651 52.3801L52.9154 53.381H57.8354H62.7553L62.6023 52.2467Z" fill="#EAEBEC"/>
<path d="M23.2284 107.336L7.35534 102.892L3.82365 63.3899C1.88123 41.6639 0.286332 23.4376 0.279438 22.8871L0.266907 21.8862H39.7688H79.2707L79.2759 22.4868C79.283 23.3253 72.3355 101.698 72.194 102.376C72.0924 102.862 70.1773 103.454 55.9905 107.382C47.142 109.832 39.7221 111.824 39.5019 111.808C39.2817 111.793 31.9587 109.78 23.2285 107.336H23.2284ZM49.8788 91.9739C55.3658 90.4484 59.9331 89.0743 60.0283 88.9203C60.1234 88.7663 60.779 82.0582 61.4849 74.0133C62.1909 65.9685 62.8264 59.1762 62.897 58.9193C63.0184 58.478 62.0848 58.4522 45.9792 58.4522H28.9329L29.6587 50.7787C30.0578 46.5582 30.394 43.0942 30.4058 43.0809C30.4175 43.0675 32.9194 42.9877 35.9654 42.9035C40.9601 42.7655 51.26 43.1639 51.6046 43.5085C51.7333 43.6373 52.5802 51.9461 52.5802 53.0804C52.5802 53.6396 52.6557 53.6479 57.7521 53.6479H62.924L62.8021 52.5136C62.7351 51.8897 62.297 47.0554 61.8285 41.7706L60.9769 32.1621L41.0312 32.0936C25.1633 32.0392 21.085 32.0938 21.0833 32.3605C21.0819 32.545 20.9658 33.7168 20.8248 34.9646C20.4838 37.984 17.8826 67.1578 17.8826 67.9635V68.5946H34.8545H51.8265L51.6752 69.5955C51.5919 70.146 51.3281 72.9384 51.0889 75.801C50.8497 78.6636 50.5769 81.0796 50.4827 81.17C50.2341 81.4087 40.2497 84.076 39.6271 84.07C39.3381 84.0673 36.7595 83.4239 33.8969 82.6403L28.6923 81.2156L28.5014 78.9754C28.3964 77.7433 28.2367 75.9845 28.1465 75.067L27.9825 73.3989H22.9326H17.8826L17.8938 74.3997C17.9147 76.2715 19.1285 88.8796 19.3047 89.0559C19.5086 89.2597 38.9047 94.712 39.5019 94.7333C39.7221 94.7412 44.3917 93.4995 49.8788 91.9739H49.8788Z" fill="#F0BE25"/>
<path d="M23.2284 107.336L7.35534 102.892L3.82365 63.3899C1.88123 41.6639 0.286332 23.4376 0.279438 22.8871L0.266907 21.8862H39.7688H79.2707L79.2759 22.4868C79.283 23.3253 72.3355 101.698 72.194 102.376C72.0924 102.862 70.1773 103.454 55.9905 107.382C47.142 109.832 39.7221 111.824 39.5019 111.808C39.2817 111.793 31.9587 109.78 23.2285 107.336H23.2284ZM52.8297 101.391C59.8122 99.4639 65.6563 97.7523 65.8166 97.5872C66.0661 97.3301 72.0966 31.2371 72.0724 29.0259L72.0643 28.2919H55.9166H39.7688V30.1603V32.0286H30.4272C23.1329 32.0286 21.085 32.1017 21.0833 32.3622C21.0819 32.5457 20.9658 33.7168 20.8248 34.9646C20.4838 37.984 17.8826 67.1578 17.8826 67.9635V68.5946H28.8257H39.7688V76.3348C39.7688 82.3517 39.6945 84.0739 39.4352 84.07C39.2517 84.0672 36.7595 83.4239 33.8969 82.6403L28.6923 81.2156L28.5014 78.9754C28.3964 77.7433 28.2367 75.9845 28.1465 75.067L27.9825 73.3989H22.9326H17.8826L17.8938 74.3997C17.9258 77.2626 19.1642 88.9486 19.4547 89.1281C19.6312 89.2372 24.2741 90.5713 29.7723 92.0927L39.7688 94.859V99.8763C39.7688 102.636 39.8511 104.894 39.9516 104.894C40.0521 104.894 45.8473 103.317 52.8297 101.391ZM29.6305 50.8504C30.0142 46.6694 30.3805 43.2013 30.4444 43.1435C30.5083 43.0856 32.6325 42.981 35.1647 42.9109L39.7688 42.7835V50.6179V58.4522H34.3508H28.9329L29.6305 50.8504Z" fill="#E4A126"/>
<path d="M25.356 12.4111V9.87548H28.9592H32.5624V4.93774V0H35.098H37.6336V7.47333V14.9467H31.4948H25.356V12.4111ZM40.0357 12.9449V10.9431H43.372C45.207 10.9431 46.7083 10.8753 46.7083 10.7924C46.7083 10.7095 45.207 9.01448 43.372 7.02575L40.0357 3.40989V1.70494V0H46.9752H53.9148V1.99357V3.98714L50.657 4.06208L47.3992 4.13702L50.7904 7.78914L54.1817 11.4413V13.194V14.9467H47.1087H40.0357V12.9449Z" fill="white"/>
</g>
<defs>
<clipPath id="clip0">
<rect width="79.5346" height="112" fill="white"/>
</clipPath>
</defs>
</svg>
