<svg width="232" height="232" viewBox="0 0 232 232" fill="none" xmlns="http://www.w3.org/2000/svg">
<g clip-path="url(#clip0)" filter="url(#filter0_d)">
<path d="M67.5914 46C70.4496 41.0496 75.7316 38 81.4478 38L150.973 38C156.689 38 161.971 41.0496 164.829 46L199.591 106.21C202.45 111.161 202.45 117.26 199.591 122.21L164.829 182.42C161.971 187.371 156.689 190.42 150.973 190.42L81.4478 190.42C75.7316 190.42 70.4496 187.371 67.5914 182.42L32.829 122.21C29.9709 117.26 29.9709 111.161 32.829 106.21L67.5914 46Z" fill="#1D2037"/>
<g clip-path="url(#clip1)">
<path fill-rule="evenodd" clip-rule="evenodd" d="M73 71H159V157H73V71ZM138.742 143.095C134.756 143.095 132.502 141.016 130.77 138.188L124.203 142.003C126.575 146.691 131.424 150.267 138.929 150.267C146.605 150.267 152.321 146.281 152.321 139.006C152.321 132.257 148.444 129.255 141.578 126.31L139.557 125.445C136.09 123.943 134.588 122.962 134.588 120.537C134.588 118.576 136.089 117.074 138.456 117.074C140.776 117.074 142.271 118.053 143.657 120.537L149.95 116.497C147.288 111.815 143.594 110.026 138.456 110.026C131.238 110.026 126.62 114.64 126.62 120.701C126.62 127.281 130.494 130.393 136.326 132.878L138.346 133.745C142.032 135.357 144.23 136.338 144.23 139.109C144.23 141.422 142.091 143.095 138.742 143.095ZM107.423 143.045C104.647 143.045 103.492 141.141 102.222 138.888L95.6439 142.871C97.5496 146.904 101.297 150.252 107.767 150.252C114.928 150.252 119.835 146.444 119.835 138.076V110.488H111.753V137.967C111.753 142.006 110.078 143.045 107.423 143.045Z" fill="#F7DF1E"/>
</g>
</g>
<defs>
<filter id="filter0_d" x="0" y="0" width="232" height="232" filterUnits="userSpaceOnUse" color-interpolation-filters="sRGB">
<feFlood flood-opacity="0" result="BackgroundImageFix"/>
<feColorMatrix in="SourceAlpha" type="matrix" values="0 0 0 0 0 0 0 0 0 0 0 0 0 0 0 0 0 0 127 0"/>
<feOffset dy="2"/>
<feGaussianBlur stdDeviation="10"/>
<feColorMatrix type="matrix" values="0 0 0 0 0 0 0 0 0 0 0 0 0 0 0 0 0 0 0.375 0"/>
<feBlend mode="normal" in2="BackgroundImageFix" result="effect1_dropShadow"/>
<feBlend mode="normal" in="SourceGraphic" in2="effect1_dropShadow" result="shape"/>
</filter>
<clipPath id="clip0">
<rect width="192" height="192" fill="white" transform="translate(20 18)"/>
</clipPath>
<clipPath id="clip1">
<rect width="86" height="86" fill="white" transform="translate(73 71)"/>
</clipPath>
</defs>
</svg>
