<svg width="232" height="232" viewBox="0 0 232 232" fill="none" xmlns="http://www.w3.org/2000/svg">
<path fill-rule="evenodd" clip-rule="evenodd" d="M73 71H159V157H73V71ZM138.742 143.095C134.756 143.095 132.502 141.016 130.77 138.188L124.203 142.003C126.575 146.691 131.424 150.267 138.929 150.267C146.605 150.267 152.321 146.281 152.321 139.006C152.321 132.257 148.444 129.255 141.578 126.31L139.557 125.445C136.09 123.943 134.588 122.962 134.588 120.537C134.588 118.576 136.089 117.074 138.456 117.074C140.776 117.074 142.271 118.053 143.657 120.537L149.95 116.497C147.288 111.815 143.594 110.026 138.456 110.026C131.238 110.026 126.62 114.64 126.62 120.701C126.62 127.281 130.494 130.393 136.326 132.878L138.346 133.745C142.032 135.357 144.23 136.338 144.23 139.109C144.23 141.422 142.091 143.095 138.742 143.095ZM107.423 143.045C104.647 143.045 103.492 141.141 102.222 138.888L95.6439 142.871C97.5496 146.904 101.297 150.252 107.767 150.252C114.928 150.252 119.835 146.444 119.835 138.076V110.488H111.753V137.967C111.753 142.006 110.078 143.045 107.423 143.045Z" fill="#F7DF1E"/>
</svg>
