<svg width="112" height="112" viewBox="0 0 112 112" fill="none" xmlns="http://www.w3.org/2000/svg">
<path d="M23.7125 0H28.7438V4.9875H33.3813V0H38.4125V15.0938H33.3813V10.0625H28.7875V15.0938H23.7125V0ZM45.0625 5.03125H40.6219V0H54.5563V5.03125H50.0938V15.0938H45.0625V5.03125ZM56.7656 0H62.0375L65.275 5.31562L68.5125 0H73.7844V15.0938H68.7531V7.6125L65.2313 13.0375L61.7094 7.6125V15.0938H56.7656V0ZM76.2781 0H81.3094V10.1062H88.4406V15.0938H76.2781" fill="white"/>
<path d="M23.5375 103.031L16.3187 22.0061H95.6812L88.4625 102.987L55.9344 112" fill="#E44D26"/>
<path d="M56 105.109V28.6562H88.4406L82.25 97.7812" fill="#F16529"/>
<path d="M31.0625 38.5657H56V48.4969H41.9563L42.875 58.6688H56V68.5782H33.775L31.0625 38.5657ZM34.2125 73.5657H44.1875L44.8875 81.5063L56 84.4813V94.85L35.6125 89.1625" fill="#EBEBEB"/>
<path d="M80.85 38.5657H55.9562V48.4969H79.9312L80.85 38.5657ZM79.0344 58.6688H55.9562V68.6001H68.2062L67.0469 81.5063L55.9562 84.4813V94.8063L76.3 89.1626" fill="white"/>
</svg>
