<svg width="144" height="144" viewBox="0 0 144 144" fill="none" xmlns="http://www.w3.org/2000/svg">
<path fill-rule="evenodd" clip-rule="evenodd" d="M52 12C52 10.9391 51.5786 9.92172 50.8284 9.17157C50.0783 8.42143 49.0609 8 48 8C46.9391 8 45.9217 8.42143 45.1716 9.17157C44.4214 9.92172 44 10.9391 44 12V24C38.6957 24 33.6086 26.1071 29.8579 29.8579C26.1071 33.6086 24 38.6957 24 44H12C10.9391 44 9.92172 44.4214 9.17157 45.1716C8.42143 45.9217 8 46.9391 8 48C8 49.0609 8.42143 50.0783 9.17157 50.8284C9.92172 51.5786 10.9391 52 12 52H24V60H12C10.9391 60 9.92172 60.4214 9.17157 61.1716C8.42143 61.9217 8 62.9391 8 64C8 65.0609 8.42143 66.0783 9.17157 66.8284C9.92172 67.5786 10.9391 68 12 68H24V76H12C10.9391 76 9.92172 76.4214 9.17157 77.1716C8.42143 77.9217 8 78.9391 8 80C8 81.0609 8.42143 82.0783 9.17157 82.8284C9.92172 83.5786 10.9391 84 12 84H24V92H12C10.9391 92 9.92172 92.4214 9.17157 93.1716C8.42143 93.9217 8 94.9391 8 96C8 97.0609 8.42143 98.0783 9.17157 98.8284C9.92172 99.5786 10.9391 100 12 100H24C24 105.304 26.1071 110.391 29.8579 114.142C33.6086 117.893 38.6957 120 44 120V132C44 133.061 44.4214 134.078 45.1716 134.828C45.9217 135.579 46.9391 136 48 136C49.0609 136 50.0783 135.579 50.8284 134.828C51.5786 134.078 52 133.061 52 132V120H60V132C60 133.061 60.4214 134.078 61.1716 134.828C61.9217 135.579 62.9391 136 64 136C65.0609 136 66.0783 135.579 66.8284 134.828C67.5786 134.078 68 133.061 68 132V120H76V132C76 133.061 76.4214 134.078 77.1716 134.828C77.9217 135.579 78.9391 136 80 136C81.0609 136 82.0783 135.579 82.8284 134.828C83.5786 134.078 84 133.061 84 132V120H92V132C92 133.061 92.4214 134.078 93.1716 134.828C93.9217 135.579 94.9391 136 96 136C97.0609 136 98.0783 135.579 98.8284 134.828C99.5786 134.078 100 133.061 100 132V120C105.304 120 110.391 117.893 114.142 114.142C117.893 110.391 120 105.304 120 100H132C133.061 100 134.078 99.5786 134.828 98.8284C135.579 98.0783 136 97.0609 136 96C136 94.9391 135.579 93.9217 134.828 93.1716C134.078 92.4214 133.061 92 132 92H120V84H132C133.061 84 134.078 83.5786 134.828 82.8284C135.579 82.0783 136 81.0609 136 80C136 78.9391 135.579 77.9217 134.828 77.1716C134.078 76.4214 133.061 76 132 76H120V68H132C133.061 68 134.078 67.5786 134.828 66.8284C135.579 66.0783 136 65.0609 136 64C136 62.9391 135.579 61.9217 134.828 61.1716C134.078 60.4214 133.061 60 132 60H120V52H132C133.061 52 134.078 51.5786 134.828 50.8284C135.579 50.0783 136 49.0609 136 48C136 46.9391 135.579 45.9217 134.828 45.1716C134.078 44.4214 133.061 44 132 44H120C120 38.6957 117.893 33.6086 114.142 29.8579C110.391 26.1071 105.304 24 100 24V12C100 10.9391 99.5786 9.92172 98.8284 9.17157C98.0783 8.42143 97.0609 8 96 8C94.9391 8 93.9217 8.42143 93.1716 9.17157C92.4214 9.92172 92 10.9391 92 12V24H84V12C84 10.9391 83.5786 9.92172 82.8284 9.17157C82.0783 8.42143 81.0609 8 80 8C78.9391 8 77.9217 8.42143 77.1716 9.17157C76.4214 9.92172 76 10.9391 76 12V24H68V12C68 10.9391 67.5786 9.92172 66.8284 9.17157C66.0783 8.42143 65.0609 8 64 8C62.9391 8 61.9217 8.42143 61.1716 9.17157C60.4214 9.92172 60 10.9391 60 12V24H52V12ZM60 48C56.8174 48 53.7652 49.2643 51.5147 51.5147C49.2643 53.7652 48 56.8174 48 60V84C48 87.1826 49.2643 90.2348 51.5147 92.4853C53.7652 94.7357 56.8174 96 60 96H84C87.1826 96 90.2348 94.7357 92.4853 92.4853C94.7357 90.2348 96 87.1826 96 84V60C96 56.8174 94.7357 53.7652 92.4853 51.5147C90.2348 49.2643 87.1826 48 84 48H60ZM60 56C58.9391 56 57.9217 56.4214 57.1716 57.1716C56.4214 57.9217 56 58.9391 56 60V84C56 85.0609 56.4214 86.0783 57.1716 86.8284C57.9217 87.5786 58.9391 88 60 88H84C85.0609 88 86.0783 87.5786 86.8284 86.8284C87.5786 86.0783 88 85.0609 88 84V60C88 58.9391 87.5786 57.9217 86.8284 57.1716C86.0783 56.4214 85.0609 56 84 56H60Z" fill="#199AD2"/>
</svg>
