<svg width="144" height="144" viewBox="0 0 144 144" fill="none" xmlns="http://www.w3.org/2000/svg">
<g clip-path="url(#clip0)">
<path fill-rule="evenodd" clip-rule="evenodd" d="M21.05 107.6C17.38 116.51 12.42 124.97 11 133.88L16.13 133.44C24.23 109.88 31.53 94.04 47.36 74.23C59.24 59.39 72.13 47.58 88.66 38.2C97.46 33.2 108.73 27.73 118.87 26.35C121.64 25.97 124.45 25.86 127.33 26.11C95.93 33.3 71.07 49.95 51.21 74.91C43.1 85.09 36.05 96.4 29.57 108.32L41.51 110.5L36.54 108.03L54.32 105.2C47.72 102.87 41.2 103.65 39.11 101.14C57.41 100.31 72.45 96.36 83.01 88.69C79.08 88.14 74.55 87.65 72.19 86.52C89.88 80.54 100.11 69.79 113.09 60.25C96.22 63.79 80.61 63.21 76.09 60C105.86 62.21 125.09 53.98 131.68 33.23C132.25 30.99 132.41 28.73 132.05 26.45C129.74 11.62 103.49 6.61 94.95 18.77C93.24 21.2 90.83 23.43 88.84 26.25L96.97 11C75.09 18.39 73.29 26.54 61.97 51.09C62.87 43.62 64.94 36.85 67.63 30.46C40.29 41.01 31.18 67.57 29.72 90.16C28.93 82.28 30.39 72.38 33.21 61.26C25.23 69.26 19.8 78.65 21.74 92.05L18.09 90.42L20.01 97.61L14.55 95.02L21.05 107.6Z" fill="#4C6EF5"/>
</g>
<defs>
<clipPath id="clip0">
<rect width="121.24" height="122.88" fill="white" transform="translate(11 11)"/>
</clipPath>
</defs>
</svg>
