<svg width="60" height="60" viewBox="0 0 60 60" fill="none" xmlns="http://www.w3.org/2000/svg">
<path d="M30 0C13.431 0 0 13.431 0 30C0 46.569 13.431 60 30 60C46.569 60 60 46.569 60 30C60 13.431 46.569 0 30 0ZM30 4.347C36.5355 4.347 42.501 6.792 47.031 10.815C43.7025 15.2055 38.646 18.129 33.579 20.1075C30.7106 14.8835 27.4959 9.85729 23.9565 5.0625C25.936 4.58535 27.9653 4.34516 30.0015 4.347H30ZM19.086 6.777C22.431 11.781 25.671 16.4205 28.6305 21.672C21.1455 23.6115 12.687 24.7755 4.8735 24.795C6.5205 16.803 11.889 10.167 19.086 6.7785V6.777ZM49.8765 13.782C53.5834 18.3119 55.6226 23.9773 55.653 29.8305C49.719 28.6605 43.818 28.3545 37.809 28.9605C37.134 27.276 36.315 25.6755 35.5305 23.9505C40.71 21.861 46.248 18.285 49.8765 13.7805V13.782ZM30.714 25.641C31.356 27.006 32.1 28.455 32.799 29.9355C24.444 33.6195 15.5565 38.5425 10.944 47.1735C6.51601 42.2734 4.1562 35.8498 4.359 29.2485C13.3065 29.2065 22.089 28.0875 30.714 25.641V25.641ZM44.271 32.6355C48.0042 32.6363 51.722 33.1152 55.3335 34.0605C54.7766 37.5349 53.5109 40.8575 51.615 43.8217C49.7191 46.786 47.2336 49.3284 44.313 51.291C42.936 45.0285 41.6235 39.036 39.303 32.994C40.9476 32.7544 42.6075 32.634 44.2695 32.634L44.271 32.6355ZM55.467 33.1005C55.449 33.2475 55.4325 33.3915 55.4115 33.5355C55.4325 33.39 55.4505 33.246 55.467 33.1005ZM34.557 34.1655C36.921 40.275 38.7765 47.04 40.0215 53.6235C36.8523 54.9682 33.4442 55.659 30.0015 55.6545C24.2983 55.6627 18.7564 53.7617 14.259 50.2545C18.9045 42.7185 26.1 37.0155 34.5555 34.167L34.557 34.1655Z" fill="#2D365C"/>
</svg>
