<svg width="64" height="64" viewBox="0 0 64 64" fill="none" xmlns="http://www.w3.org/2000/svg">
<path d="M32 1.52381C15.168 1.52381 1.5238 15.168 1.5238 32C1.5238 48.832 15.168 62.4762 32 62.4762C48.832 62.4762 62.4762 48.832 62.4762 32C62.4762 15.168 48.832 1.52381 32 1.52381ZM32 5.93981C38.6392 5.93981 44.6994 8.42362 49.3013 12.5105C45.92 16.9707 40.7832 19.9406 35.6358 21.9505C32.7219 16.6436 29.4562 11.5376 25.8606 6.66667C27.8715 6.18194 29.933 5.93795 32.0015 5.93981H32ZM20.9128 8.40838C24.3109 13.4918 27.6023 18.205 30.6088 23.5398C23.0049 25.5101 14.4122 26.6926 6.47466 26.7124C8.1478 18.5935 13.6015 11.8522 20.9128 8.40991V8.40838ZM52.192 15.5246C55.9577 20.1264 58.0293 25.8817 58.0602 31.8278C52.032 30.6392 46.0373 30.3284 39.9329 30.944C39.2472 29.2328 38.4152 27.6069 37.6183 25.8545C42.88 23.7318 48.5059 20.099 52.192 15.523V15.5246ZM32.7253 27.5718C33.3775 28.9585 34.1333 30.4305 34.8434 31.9345C26.3558 35.677 17.3272 40.6781 12.6415 49.4461C8.14324 44.4682 5.74598 37.9426 5.95199 31.2366C15.0415 31.1939 23.9634 30.0571 32.7253 27.5718ZM46.4975 34.6773C50.29 34.6781 54.0667 35.1646 57.7356 36.125C57.1699 39.6545 55.8841 43.0298 53.9581 46.0411C52.0321 49.0524 49.5071 51.6353 46.5402 53.629C45.1413 47.267 43.808 41.1794 41.4507 35.0415C43.1214 34.7981 44.8076 34.6758 46.496 34.6758L46.4975 34.6773ZM57.8712 35.1497C57.8529 35.299 57.8362 35.4453 57.8149 35.5916C57.8362 35.4438 57.8545 35.2975 57.8712 35.1497ZM36.6293 36.2316C39.0309 42.4381 40.9158 49.3105 42.1806 55.9985C38.9611 57.3645 35.4988 58.0663 32.0015 58.0617C26.2078 58.07 20.5779 56.1388 16.0091 52.576C20.7284 44.9204 28.0381 39.1269 36.6278 36.2331L36.6293 36.2316Z" fill="#2D365C"/>
</svg>
