<svg width="64" height="64" viewBox="0 0 64 64" fill="none" xmlns="http://www.w3.org/2000/svg">
<path fill-rule="evenodd" clip-rule="evenodd" d="M31.9988 7.65635C18.2151 7.65635 7.04004 18.832 7.04004 32.6176C7.04004 43.6455 14.1901 53.001 24.1095 56.2996C25.3588 56.5306 25.8132 55.762 25.8132 55.0983C25.8132 54.5069 25.7914 52.9383 25.7805 50.8532C18.8372 52.3629 17.3722 47.5066 17.3722 47.5066C16.2368 44.6234 14.6004 43.8567 14.6004 43.8567C12.3341 42.3092 14.7725 42.3392 14.7725 42.3392C17.2775 42.5165 18.5959 44.9108 18.5959 44.9108C20.8218 48.7252 24.4384 47.6212 25.8599 46.9863C26.0858 45.3703 26.7322 44.2727 27.4445 43.6474C21.9028 43.0176 16.0762 40.8762 16.0762 31.312C16.0762 28.5863 17.0484 26.3578 18.6445 24.6125C18.3892 23.984 17.5309 21.4464 18.8896 18.0084C18.8896 18.0084 20.985 17.3376 25.7543 20.569C27.744 20.0128 29.8797 19.7351 32.0026 19.7268C34.1223 19.7357 36.2586 20.0128 38.2509 20.569C43.017 17.3376 45.1092 18.0084 45.1092 18.0084C46.4711 21.4464 45.6135 23.984 45.3575 24.6125C46.9575 26.3578 47.9226 28.5863 47.9226 31.312C47.9226 40.8986 42.0877 43.0106 36.5274 43.6263C37.4221 44.3975 38.2208 45.9239 38.2208 48.2528C38.2208 51.5879 38.1908 54.2791 38.1908 55.0976C38.1908 55.7664 38.6394 56.544 39.9066 56.2964C49.8151 52.9908 56.96 43.6423 56.96 32.6176C56.96 18.832 45.785 7.65635 31.9988 7.65635Z" fill="#2D365C"/>
</svg>
