<svg width="60" height="60" viewBox="0 0 60 60" fill="none" xmlns="http://www.w3.org/2000/svg">
<path fill-rule="evenodd" clip-rule="evenodd" d="M29.9985 0C13.4315 0 0 13.4323 0 30.0015C0 43.2562 8.59385 54.5008 20.5162 58.4654C22.0177 58.7431 22.5638 57.8192 22.5638 57.0215C22.5638 56.3108 22.5377 54.4254 22.5246 51.9192C14.1792 53.7339 12.4185 47.8969 12.4185 47.8969C11.0538 44.4315 9.08692 43.51 9.08692 43.51C6.36308 41.65 9.29385 41.6862 9.29385 41.6862C12.3046 41.8992 13.8892 44.7769 13.8892 44.7769C16.5646 49.3615 20.9115 48.0346 22.62 47.2715C22.8915 45.3292 23.6685 44.01 24.5246 43.2585C17.8638 42.5015 10.8608 39.9277 10.8608 28.4323C10.8608 25.1562 12.0292 22.4777 13.9477 20.38C13.6408 19.6246 12.6092 16.5746 14.2423 12.4423C14.2423 12.4423 16.7608 11.6362 22.4931 15.52C24.8846 14.8515 27.4515 14.5177 30.0031 14.5077C32.5508 14.5185 35.1185 14.8515 37.5131 15.52C43.2415 11.6362 45.7562 12.4423 45.7562 12.4423C47.3931 16.5746 46.3623 19.6246 46.0546 20.38C47.9777 22.4777 49.1377 25.1562 49.1377 28.4323C49.1377 39.9546 42.1246 42.4931 35.4415 43.2331C36.5169 44.16 37.4769 45.9946 37.4769 48.7938C37.4769 52.8023 37.4408 56.0369 37.4408 57.0208C37.4408 57.8246 37.98 58.7592 39.5031 58.4615C51.4123 54.4885 60 43.2523 60 30.0015C60 13.4323 46.5685 0 29.9985 0V0Z" fill="#2D365C"/>
</svg>
