<svg width="603" height="643" viewBox="0 0 603 643" fill="none" xmlns="http://www.w3.org/2000/svg">
<path d="M578.707 494.634L257.113 308.936C252.599 306.364 248.947 299.342 248.947 293.337V44.5342C248.947 38.5157 252.599 35.7508 257.113 38.3614L578.707 224.06C583.221 226.632 586.873 233.653 586.873 239.659V488.461C586.925 494.48 583.273 497.245 578.707 494.634Z" fill="#B1B4C4"/>
<path d="M580.417 497.206L583.98 495.149L582.437 484.591L580.417 497.206Z" fill="#B1B4C4"/>
<path d="M248.368 39.866L251.879 37.8341L256.92 40.7147C256.92 40.7147 251.545 41.5249 251.416 41.4992C251.288 41.4735 248.368 39.866 248.368 39.866Z" fill="#B1B4C4"/>
<path d="M575.814 496.396L254.168 310.646C249.654 308.074 245.989 301.053 245.989 295.034V46.296C245.989 40.2775 249.654 37.5126 254.168 40.1232L575.814 225.822C580.328 228.394 583.98 235.415 583.98 241.434V490.172C583.98 496.177 580.328 498.968 575.814 496.396Z" fill="#E4E7F2"/>
<path d="M575.248 496.666L253.602 310.968C249.088 308.396 245.423 301.374 245.423 295.356V46.5532C245.423 40.5476 249.088 37.7827 253.602 40.3804L575.248 226.079C579.749 228.651 583.414 235.672 583.414 241.691V490.493C583.414 496.512 579.749 499.277 575.248 496.666Z" fill="#D6D8E5"/>
<path d="M578.99 481.53L249.487 291.318L249.68 47.582C249.68 45.0872 251.429 44.0712 253.538 45.3187L575.183 231.017C576.313 231.765 577.25 232.769 577.92 233.946C578.591 235.123 578.975 236.441 579.042 237.794L578.99 481.53Z" fill="#1D2037"/>
<path opacity="0.5" d="M578.887 481.543L249.487 291.33L249.59 47.582C249.59 45.0872 251.339 44.0712 253.448 45.3187L575.093 231.017C576.222 231.766 577.159 232.769 577.829 233.947C578.499 235.124 578.884 236.442 578.951 237.794L578.887 481.543Z" fill="url(#paint0_linear)"/>
<path opacity="0.4" d="M332.654 641.238L11.0083 455.54C6.49441 452.968 7.06025 448.39 12.2943 445.38L227.766 320.973C232.91 317.976 240.858 317.642 245.359 320.253L567.017 505.951C571.518 508.523 570.952 513.101 565.731 516.11L350.246 640.518C345.038 643.514 337.155 643.849 332.654 641.238Z" fill="#211B49"/>
<path d="M339.675 637.02L18.0042 451.386C13.4903 448.814 14.0561 444.236 19.2902 441.227L234.762 316.832C239.906 313.823 247.854 313.488 252.368 316.099L574.013 501.797C578.527 504.369 577.961 508.947 572.727 511.957L357.281 636.3C352.073 639.296 344.189 639.631 339.675 637.02Z" fill="#B1B4C4"/>
<path d="M14.9821 447.129V441.059L21.7979 443.914L14.9821 447.129Z" fill="#B1B4C4"/>
<path d="M577.061 506.272V500.344L572.02 502.08L575.363 506.993L577.061 506.272Z" fill="#B1B4C4"/>
<path d="M339.675 631.915L18.0042 446.242C13.4903 443.67 14.0561 439.092 19.2902 436.083L234.762 311.675C239.906 308.666 247.854 308.344 252.368 310.955L574.013 496.653C578.527 499.225 577.961 503.803 572.727 506.813L357.281 631.182C352.073 634.191 344.189 634.525 339.675 631.915Z" fill="#E4E7F2"/>
<path d="M339.675 631.13L18.0042 445.432C13.4903 442.86 14.0561 438.269 19.2902 435.272L234.762 310.865C239.906 307.856 247.854 307.534 252.368 310.132L574.013 495.843C578.527 498.415 577.961 502.993 572.727 506.002L357.281 630.397C352.073 633.406 344.189 633.728 339.675 631.13Z" fill="#D6D8E5"/>
<path d="M228.795 352.827L213.826 344.185C212.54 343.478 212.758 342.243 214.16 341.433L228.461 333.177C229.183 332.775 229.99 332.548 230.817 332.514C231.643 332.481 232.466 332.642 233.219 332.984L248.201 341.626C249.423 342.333 249.268 343.568 247.854 344.378L233.566 352.634C232.841 353.036 232.032 353.263 231.204 353.297C230.375 353.33 229.55 353.169 228.795 352.827Z" fill="#2B303F"/>
<path d="M250.001 365.07L235.019 356.415C233.798 355.72 233.952 354.486 235.367 353.663L249.654 345.42C250.379 345.017 251.188 344.79 252.017 344.757C252.845 344.723 253.67 344.884 254.425 345.227L269.395 353.869C270.681 354.576 270.462 355.811 269.06 356.621L254.76 364.864C254.039 365.271 253.232 365.502 252.405 365.538C251.578 365.574 250.755 365.413 250.001 365.07Z" fill="#2B303F"/>
<path d="M271.439 377.454L256.47 368.799C255.184 368.092 255.403 366.857 256.805 366.047L271.105 357.804C271.826 357.397 272.632 357.166 273.459 357.13C274.286 357.094 275.11 357.255 275.863 357.598L290.845 366.253C292.131 366.947 291.913 368.182 290.498 369.005L276.21 377.248C275.485 377.649 274.677 377.876 273.849 377.911C273.021 377.947 272.196 377.79 271.439 377.454Z" fill="#2B303F"/>
<path d="M292.401 389.542L277.419 380.9C276.198 380.193 276.352 378.958 277.767 378.148L292.054 369.892C292.779 369.49 293.588 369.263 294.417 369.229C295.245 369.196 296.07 369.357 296.825 369.699L311.807 378.341C313.029 379.048 312.875 380.283 311.46 381.093L297.173 389.349C296.448 389.752 295.638 389.979 294.81 390.012C293.981 390.046 293.157 389.885 292.401 389.542Z" fill="#2B303F"/>
<path d="M313.608 401.785L298.626 393.143C297.34 392.436 297.558 391.201 298.973 390.391L313.261 382.135C313.986 381.733 314.795 381.506 315.623 381.472C316.452 381.439 317.277 381.6 318.032 381.942L333.001 390.584C334.223 391.291 334.068 392.526 332.654 393.336L318.366 401.592C317.643 401.994 316.836 402.221 316.01 402.255C315.183 402.288 314.361 402.127 313.608 401.785Z" fill="#2B303F"/>
<path d="M334.801 414.092L319.832 405.45C318.61 404.743 318.752 403.508 320.167 402.698L334.454 394.442C335.179 394.04 335.988 393.813 336.817 393.779C337.645 393.746 338.47 393.907 339.225 394.249L354.207 402.891C355.429 403.598 355.275 404.833 353.86 405.643L339.573 413.899C338.847 414.301 338.038 414.529 337.21 414.562C336.381 414.596 335.557 414.435 334.801 414.092Z" fill="#2B303F"/>
<path d="M356.008 426.27L341.026 417.629C339.804 416.921 339.958 415.687 341.373 414.876L355.661 406.62C356.386 406.218 357.195 405.991 358.023 405.958C358.852 405.924 359.677 406.085 360.432 406.427L375.401 415.069C376.623 415.777 376.468 417.011 375.067 417.821L360.766 426.065C360.045 426.472 359.239 426.703 358.412 426.739C357.585 426.774 356.761 426.614 356.008 426.27Z" fill="#2B303F"/>
<path d="M377.201 438.526L362.232 429.871C361.01 429.164 361.165 427.942 362.566 427.119L376.867 418.876C377.588 418.469 378.394 418.238 379.221 418.202C380.048 418.166 380.872 418.327 381.625 418.67L396.607 427.325C397.893 428.032 397.675 429.254 396.26 430.077L381.947 438.307C381.228 438.713 380.424 438.943 379.6 438.981C378.776 439.019 377.954 438.863 377.201 438.526Z" fill="#2B303F"/>
<path d="M398.408 450.743L383.426 442.101C382.204 441.394 382.358 440.159 383.773 439.349L398.06 431.106C398.783 430.698 399.592 430.468 400.421 430.432C401.25 430.396 402.076 430.556 402.832 430.9L417.801 439.555C419.023 440.249 418.868 441.484 417.466 442.307L403.179 450.55C402.454 450.952 401.645 451.179 400.816 451.213C399.988 451.246 399.163 451.086 398.408 450.743Z" fill="#2B303F"/>
<path d="M419.601 462.96L404.632 454.318C403.41 453.611 403.565 452.376 404.966 451.566L419.241 443.336C419.964 442.933 420.771 442.706 421.597 442.673C422.424 442.639 423.247 442.8 423.999 443.143L438.982 451.785C440.203 452.492 440.049 453.726 438.634 454.537L424.385 462.793C423.657 463.193 422.844 463.417 422.013 463.446C421.182 463.475 420.356 463.308 419.601 462.96Z" fill="#2B303F"/>
<path d="M440.808 475.228L425.826 466.587C424.604 465.879 424.758 464.645 426.173 463.834L440.461 455.578C441.186 455.176 441.995 454.949 442.823 454.916C443.652 454.882 444.476 455.043 445.232 455.385L460.214 464.027C461.435 464.735 461.281 465.969 459.866 466.779L445.579 475.036C444.854 475.438 444.045 475.665 443.216 475.698C442.388 475.732 441.563 475.571 440.808 475.228Z" fill="#2B303F"/>
<path d="M462.014 487.471L447.032 478.829C445.81 478.122 445.965 476.887 447.379 476.077L461.68 467.821C462.405 467.419 463.214 467.192 464.042 467.158C464.871 467.125 465.696 467.286 466.451 467.628L481.42 476.27C482.706 476.977 482.487 478.212 481.073 479.022L466.824 487.278C466.095 487.689 465.278 487.921 464.442 487.954C463.606 487.988 462.774 487.822 462.014 487.471Z" fill="#2B303F"/>
<path d="M483.208 499.714L468.238 491.059C466.952 490.352 467.158 489.13 468.573 488.307L482.86 480.064C483.584 479.659 484.393 479.43 485.222 479.394C486.05 479.359 486.875 479.518 487.632 479.858L502.614 488.513C503.835 489.22 503.681 490.442 502.266 491.265L487.979 499.508C487.256 499.915 486.447 500.146 485.618 500.182C484.789 500.218 483.963 500.057 483.208 499.714Z" fill="#2B303F"/>
<path d="M514.625 517.846L489.432 503.302C488.21 502.595 488.365 501.36 489.779 500.55L504.118 492.307C504.841 491.899 505.65 491.668 506.479 491.633C507.308 491.597 508.134 491.757 508.889 492.101L534.018 506.684C535.24 507.391 535.085 508.626 533.684 509.436L519.383 517.692C518.657 518.088 517.849 518.309 517.022 518.335C516.196 518.362 515.375 518.195 514.625 517.846Z" fill="#2B303F"/>
<path d="M239.7 382.842L224.718 374.226C223.432 373.519 223.651 372.284 225.066 371.474L239.353 363.218C240.078 362.816 240.887 362.588 241.716 362.555C242.544 362.521 243.369 362.682 244.124 363.025L259.094 371.654C260.315 372.361 260.161 373.596 258.759 374.406L244.459 382.662C243.735 383.062 242.927 383.287 242.101 383.318C241.275 383.35 240.452 383.187 239.7 382.842Z" fill="#2B303F"/>
<path d="M260.933 395.111L245.963 386.469C244.742 385.761 244.896 384.527 246.298 383.717L260.598 375.512C261.321 375.11 262.128 374.883 262.954 374.849C263.781 374.816 264.604 374.977 265.357 375.319L280.352 383.91C281.573 384.617 281.419 385.851 280.004 386.662L265.717 394.918C264.99 395.322 264.179 395.55 263.348 395.584C262.517 395.617 261.69 395.455 260.933 395.111Z" fill="#2B303F"/>
<path d="M282.178 407.366L267.196 398.724C265.91 398.017 266.128 396.782 267.543 395.972L281.83 387.716C282.555 387.314 283.365 387.087 284.193 387.053C285.022 387.02 285.846 387.181 286.601 387.523L301.571 396.165C302.792 396.872 302.638 398.107 301.236 398.917L286.936 407.173C286.213 407.576 285.406 407.803 284.58 407.836C283.753 407.87 282.931 407.709 282.178 407.366Z" fill="#2B303F"/>
<path d="M303.41 419.635L288.428 410.98C287.206 410.285 287.36 409.051 288.775 408.228L303.063 399.946C303.787 399.542 304.595 399.312 305.424 399.277C306.252 399.241 307.078 399.4 307.834 399.74L322.79 408.434C324.012 409.141 323.857 410.363 322.443 411.186L308.155 419.429C307.435 419.832 306.631 420.061 305.807 420.096C304.983 420.132 304.162 419.974 303.41 419.635Z" fill="#2B303F"/>
<path d="M324.475 431.8L309.505 423.094C308.284 422.387 308.438 421.165 309.84 420.342L324.14 412.099C324.861 411.692 325.668 411.461 326.495 411.425C327.322 411.389 328.145 411.549 328.899 411.893L343.881 420.548C345.167 421.242 344.948 422.477 343.533 423.3L329.22 431.594C328.499 431.995 327.695 432.222 326.872 432.257C326.048 432.293 325.227 432.137 324.475 431.8Z" fill="#2B303F"/>
<path d="M345.72 444.056L330.738 435.414C329.516 434.707 329.67 433.472 331.085 432.662L345.372 424.38C346.097 423.978 346.907 423.751 347.735 423.717C348.564 423.684 349.388 423.845 350.144 424.187L365.113 432.829C366.335 433.536 366.18 434.771 364.778 435.581L350.478 443.837C349.757 444.244 348.951 444.475 348.125 444.513C347.298 444.551 346.475 444.394 345.72 444.056Z" fill="#2B303F"/>
<path d="M366.952 456.311L351.97 447.669C350.748 446.962 350.902 445.728 352.317 444.917L366.605 436.674C367.328 436.267 368.136 436.036 368.966 436C369.795 435.964 370.62 436.125 371.376 436.468L386.358 445.123C387.579 445.818 387.425 447.052 386.011 447.875L371.723 456.118C370.998 456.521 370.189 456.748 369.36 456.781C368.532 456.815 367.707 456.654 366.952 456.311Z" fill="#2B303F"/>
<path d="M388.184 468.58L373.215 459.938C371.993 459.231 372.147 457.996 373.562 457.186L387.85 448.93C388.572 448.528 389.379 448.301 390.206 448.267C391.032 448.234 391.855 448.394 392.608 448.737L407.59 457.379C408.812 458.086 408.657 459.321 407.243 460.131L392.955 468.387C392.23 468.789 391.421 469.016 390.592 469.05C389.764 469.083 388.939 468.922 388.184 468.58Z" fill="#2B303F"/>
<path d="M409.429 480.835L394.447 472.193C393.161 471.486 393.379 470.252 394.794 469.441L409.082 461.185C409.807 460.783 410.616 460.556 411.444 460.522C412.273 460.489 413.098 460.65 413.853 460.992L428.822 469.634C430.044 470.342 429.902 471.576 428.488 472.386L414.2 480.643C413.475 481.045 412.666 481.272 411.837 481.305C411.009 481.339 410.184 481.178 409.429 480.835Z" fill="#2B303F"/>
<path d="M430.661 493.104L415.692 484.449C414.47 483.755 414.624 482.52 416.026 481.697L430.327 473.454C431.049 473.052 431.856 472.825 432.682 472.789C433.507 472.753 434.33 472.911 435.085 473.248L450.106 481.903C451.327 482.61 451.173 483.845 449.758 484.655L435.471 492.898C434.743 493.312 433.927 493.546 433.091 493.582C432.254 493.618 431.422 493.454 430.661 493.104Z" fill="#2B303F"/>
<path d="M451.906 505.398L436.924 496.756C435.702 496.049 435.857 494.814 437.271 494.004L451.559 485.748C452.284 485.346 453.093 485.119 453.921 485.085C454.75 485.052 455.575 485.213 456.33 485.555L471.299 494.197C472.521 494.904 472.367 496.139 470.965 496.949L456.664 505.205C455.942 505.607 455.135 505.834 454.308 505.868C453.482 505.901 452.659 505.74 451.906 505.398Z" fill="#2B303F"/>
<path d="M473.138 517.628L458.169 508.973C456.947 508.266 457.089 507.044 458.503 506.221L472.791 497.978C473.515 497.573 474.324 497.344 475.152 497.308C475.981 497.273 476.806 497.431 477.562 497.772L492.544 506.427C493.766 507.134 493.612 508.356 492.197 509.179L477.909 517.422C477.186 517.829 476.377 518.06 475.548 518.096C474.719 518.132 473.894 517.971 473.138 517.628Z" fill="#2B303F"/>
<path d="M218.456 370.587L193.275 356.042C192.054 355.335 192.208 354.113 193.61 353.29L207.91 345.047C208.631 344.639 209.438 344.409 210.265 344.373C211.092 344.337 211.915 344.497 212.668 344.841L237.913 359.386C239.135 360.093 238.98 361.327 237.566 362.138L223.227 370.368C222.504 370.774 221.696 371.006 220.867 371.044C220.039 371.082 219.213 370.925 218.456 370.587Z" fill="#2B303F"/>
<path d="M513.596 518.631L498.627 509.989C497.938 509.637 497.176 509.453 496.402 509.453C495.629 509.453 494.866 509.637 494.177 509.989L479.08 518.708C477.793 519.415 477.793 520.56 479.08 521.28L480.275 521.975C481.407 522.618 481.394 523.685 480.275 524.341L464.252 533.549C462.966 534.269 462.966 535.413 464.252 536.121L473.781 541.625C474.469 541.974 475.229 542.156 476 542.156C476.77 542.156 477.53 541.974 478.218 541.625L493.161 533.008L496.248 531.221L498.473 529.935L500.71 528.649L513.57 521.229C514.818 520.483 514.818 519.338 513.596 518.631Z" fill="#2B303F"/>
<path d="M146.683 400.332L131.714 391.69C130.428 390.983 130.646 389.748 132.048 388.938L146.349 380.656C147.071 380.254 147.878 380.027 148.705 379.993C149.531 379.96 150.354 380.121 151.107 380.463L166.089 389.105C167.311 389.812 167.156 391.047 165.742 391.857L151.454 400.113C150.731 400.52 149.923 400.751 149.095 400.789C148.266 400.827 147.44 400.67 146.683 400.332Z" fill="#2B303F"/>
<path d="M167.825 412.536L152.856 403.894C151.57 403.187 151.788 401.952 153.19 401.142L167.491 392.886C168.213 392.484 169.02 392.257 169.847 392.223C170.673 392.19 171.496 392.351 172.249 392.693L187.231 401.335C188.453 402.042 188.298 403.277 186.884 404.087L172.596 412.343C171.871 412.745 171.062 412.972 170.234 413.006C169.405 413.039 168.58 412.878 167.825 412.536Z" fill="#2B303F"/>
<path d="M188.967 424.74L173.998 416.098C172.712 415.391 172.918 414.156 174.332 413.346L188.62 405.09C189.345 404.688 190.154 404.461 190.983 404.427C191.811 404.394 192.636 404.555 193.391 404.897L208.335 413.539C209.556 414.246 209.402 415.481 207.987 416.291L193.7 424.547C192.98 424.943 192.177 425.167 191.356 425.2C190.535 425.234 189.717 425.076 188.967 424.74Z" fill="#2B303F"/>
<path d="M369.009 528.687L354.027 520.033C352.741 519.338 352.96 518.104 354.375 517.281L368.662 509.037C369.386 508.633 370.195 508.404 371.023 508.368C371.852 508.332 372.677 508.491 373.433 508.832L388.377 517.486C389.663 518.194 389.444 519.415 388.03 520.238L373.768 528.546C373.042 528.943 372.232 529.163 371.406 529.187C370.579 529.212 369.758 529.041 369.009 528.687Z" fill="#2B303F"/>
<path d="M390.139 540.892L375.169 532.25C373.883 531.542 374.102 530.308 375.504 529.498L389.804 521.242C390.527 520.839 391.334 520.612 392.16 520.579C392.987 520.545 393.81 520.706 394.563 521.049L409.545 529.691C410.831 530.398 410.612 531.632 409.197 532.443L394.91 540.699C394.185 541.101 393.376 541.328 392.547 541.362C391.719 541.395 390.894 541.234 390.139 540.892Z" fill="#2B303F"/>
<path d="M411.281 553.096L396.312 544.454C395.09 543.747 395.244 542.512 396.646 541.702L410.946 533.446C411.669 533.043 412.476 532.816 413.303 532.783C414.129 532.749 414.952 532.91 415.705 533.253L430.687 541.895C431.973 542.602 431.754 543.837 430.34 544.647L416.052 552.903C415.327 553.305 414.518 553.532 413.689 553.566C412.861 553.599 412.036 553.438 411.281 553.096Z" fill="#2B303F"/>
<path d="M432.423 565.3L417.454 556.658C416.232 555.951 416.386 554.716 417.788 553.906L432.101 545.65C432.824 545.248 433.631 545.021 434.458 544.987C435.284 544.954 436.107 545.115 436.86 545.457L451.842 554.099C453.128 554.806 452.909 556.041 451.494 556.851L437.245 565.107C436.514 565.518 435.696 565.749 434.857 565.783C434.019 565.816 433.185 565.651 432.423 565.3Z" fill="#2B303F"/>
<path d="M215.549 440.095L195.127 428.302C193.905 427.595 194.06 426.36 195.474 425.55L209.762 417.294C210.487 416.892 211.296 416.665 212.125 416.631C212.953 416.598 213.778 416.759 214.533 417.101L234.955 428.894C236.241 429.601 236.022 430.823 234.608 431.646L220.32 439.889C219.597 440.296 218.788 440.527 217.959 440.563C217.13 440.599 216.304 440.438 215.549 440.095Z" fill="#2B303F"/>
<path d="M347.867 516.483L327.445 504.691C326.159 503.983 326.378 502.749 327.78 501.939L342.08 493.683C342.803 493.28 343.61 493.053 344.436 493.02C345.263 492.986 346.086 493.147 346.839 493.49L367.26 505.282C368.482 505.99 368.328 507.211 366.926 508.034L352.626 516.278C351.905 516.685 351.098 516.916 350.271 516.951C349.444 516.987 348.62 516.827 347.867 516.483Z" fill="#2B303F"/>
<path d="M321.272 501.128L221.722 443.67C220.5 442.963 220.655 441.728 222.056 440.918L236.357 432.662C237.08 432.26 237.887 432.033 238.713 431.999C239.539 431.966 240.362 432.127 241.115 432.469L340.678 489.966C341.9 490.673 341.746 491.908 340.331 492.718L326.044 500.974C325.316 501.37 324.505 501.591 323.676 501.618C322.848 501.644 322.025 501.477 321.272 501.128Z" fill="#2B303F"/>
<path d="M224.911 398.043L209.942 389.401C208.72 388.693 208.875 387.459 210.289 386.649L224.577 378.393C225.3 377.99 226.107 377.763 226.933 377.73C227.76 377.696 228.582 377.857 229.335 378.2L244.343 386.842C245.629 387.549 245.41 388.783 243.996 389.594L229.708 397.85C228.98 398.256 228.166 398.486 227.333 398.519C226.499 398.553 225.67 398.389 224.911 398.043Z" fill="#2B303F"/>
<path d="M246.092 410.234L231.123 401.579C229.901 400.872 230.055 399.65 231.457 398.827L245.758 390.584C246.479 390.18 247.286 389.95 248.112 389.915C248.939 389.879 249.762 390.038 250.516 390.378L265.498 399.033C266.784 399.74 266.565 400.962 265.151 401.785L250.863 410.028C250.14 410.436 249.331 410.667 248.502 410.702C247.673 410.738 246.847 410.578 246.092 410.234Z" fill="#2B303F"/>
<path d="M267.273 422.49L252.291 413.848C251.005 413.14 251.223 411.906 252.638 411.096L266.925 402.84C267.651 402.437 268.46 402.21 269.288 402.177C270.117 402.143 270.941 402.304 271.697 402.647L286.666 411.289C287.952 411.996 287.746 413.23 286.331 414.041L272.044 422.297C271.319 422.699 270.51 422.926 269.681 422.96C268.853 422.993 268.028 422.832 267.273 422.49Z" fill="#2B303F"/>
<path d="M288.453 434.668L273.471 426.026C272.185 425.319 272.404 424.084 273.819 423.274L288.068 415.069C288.793 414.667 289.602 414.44 290.43 414.407C291.259 414.373 292.084 414.534 292.839 414.876L307.808 423.518C309.094 424.226 308.875 425.46 307.474 426.27L293.212 434.527C292.485 434.921 291.676 435.139 290.849 435.163C290.023 435.188 289.202 435.018 288.453 434.668Z" fill="#2B303F"/>
<path d="M309.621 446.949L294.652 438.307C293.366 437.6 293.585 436.366 294.986 435.555L309.287 427.299C310.01 426.897 310.817 426.67 311.643 426.637C312.469 426.603 313.292 426.764 314.045 427.106L329.027 435.748C330.313 436.456 330.095 437.69 328.68 438.5L314.392 446.756C313.667 447.159 312.858 447.386 312.03 447.419C311.201 447.453 310.376 447.292 309.621 446.949Z" fill="#2B303F"/>
<path d="M330.802 459.179L315.833 450.524C314.547 449.817 314.752 448.595 316.167 447.772L330.506 439.529C331.229 439.122 332.038 438.891 332.867 438.855C333.696 438.819 334.522 438.98 335.277 439.323L350.259 447.978C351.481 448.685 351.327 449.907 349.912 450.73L335.624 458.973C334.895 459.389 334.077 459.625 333.238 459.661C332.399 459.696 331.564 459.531 330.802 459.179Z" fill="#2B303F"/>
<path d="M351.983 471.396L337 462.754C335.779 462.047 335.933 460.812 337.348 460.002L351.635 451.746C352.36 451.344 353.169 451.117 353.998 451.083C354.826 451.05 355.651 451.211 356.406 451.553L371.376 460.195C372.662 460.902 372.443 462.137 371.041 462.947L356.741 471.203C356.018 471.606 355.211 471.833 354.385 471.866C353.558 471.9 352.735 471.739 351.983 471.396Z" fill="#2B303F"/>
<path d="M373.163 483.626L358.181 474.984C356.959 474.277 357.114 473.042 358.528 472.232L372.816 463.976C373.541 463.574 374.35 463.347 375.179 463.313C376.007 463.28 376.832 463.441 377.587 463.783L392.556 472.425C393.778 473.132 393.624 474.367 392.209 475.177L377.921 483.433C377.199 483.835 376.392 484.062 375.565 484.096C374.739 484.129 373.916 483.968 373.163 483.626Z" fill="#2B303F"/>
<path d="M394.331 495.856L379.375 487.214C378.153 486.507 378.307 485.272 379.709 484.462L394.01 476.206C394.732 475.804 395.539 475.577 396.366 475.543C397.192 475.51 398.015 475.671 398.768 476.013L413.75 484.655C414.972 485.362 414.817 486.597 413.403 487.407L399.115 495.663C398.388 496.067 397.577 496.296 396.746 496.329C395.915 496.363 395.088 496.201 394.331 495.856Z" fill="#2B303F"/>
<path d="M415.512 508.086L400.53 499.431C399.308 498.724 399.462 497.502 400.877 496.679L415.165 488.436C415.888 488.028 416.696 487.797 417.526 487.762C418.355 487.726 419.18 487.886 419.936 488.23L434.918 496.885C436.14 497.579 435.985 498.814 434.571 499.637L420.283 507.88C419.559 508.284 418.75 508.514 417.922 508.549C417.093 508.585 416.268 508.426 415.512 508.086Z" fill="#2B303F"/>
<path d="M436.693 520.303L421.71 511.661C420.489 510.954 420.643 509.719 422.058 508.909L436.345 500.653C437.07 500.25 437.879 500.023 438.708 499.99C439.536 499.956 440.361 500.117 441.116 500.46L456.086 509.102C457.372 509.809 457.153 511.044 455.751 511.854L441.451 520.11C440.728 520.512 439.921 520.739 439.095 520.773C438.268 520.806 437.445 520.645 436.693 520.303Z" fill="#2B303F"/>
<path d="M457.822 532.533L442.852 523.891C441.631 523.183 441.785 521.949 443.2 521.139L457.487 512.883C458.21 512.48 459.017 512.253 459.843 512.22C460.67 512.186 461.493 512.347 462.246 512.69L477.228 521.332C478.449 522.039 478.295 523.273 476.88 524.084L462.631 532.404C461.896 532.802 461.078 533.022 460.242 533.044C459.406 533.067 458.577 532.891 457.822 532.533Z" fill="#2B303F"/>
<path d="M203.744 385.8L172.763 367.925C171.477 367.217 171.696 365.983 173.111 365.173L187.398 356.916C188.123 356.514 188.932 356.287 189.761 356.254C190.589 356.22 191.414 356.381 192.169 356.724L223.137 374.599C224.423 375.306 224.204 376.541 222.802 377.351L208.502 385.607C207.779 386.009 206.972 386.236 206.146 386.27C205.319 386.303 204.496 386.142 203.744 385.8Z" fill="#2B303F"/>
<path d="M193.854 403.804L178.885 395.188C177.663 394.48 177.805 393.259 179.219 392.436L193.507 384.192C194.23 383.785 195.039 383.554 195.868 383.518C196.697 383.483 197.523 383.643 198.278 383.987L213.26 392.641C214.482 393.336 214.327 394.57 212.913 395.394L198.625 403.637C197.898 404.035 197.088 404.258 196.259 404.287C195.431 404.316 194.607 404.15 193.854 403.804Z" fill="#2B303F"/>
<path d="M215.035 416.06L200.053 407.418C198.831 406.71 198.985 405.476 200.4 404.666L214.688 396.41C215.413 396.007 216.222 395.78 217.05 395.747C217.879 395.713 218.704 395.874 219.459 396.217L234.428 404.859C235.714 405.566 235.495 406.8 234.094 407.611L219.793 415.867C219.07 416.269 218.263 416.496 217.437 416.529C216.61 416.563 215.788 416.402 215.035 416.06Z" fill="#2B303F"/>
<path d="M236.202 428.238L221.195 419.635C219.909 418.927 220.127 417.706 221.542 416.883L235.83 408.639C236.554 408.235 237.362 408.006 238.191 407.97C239.019 407.934 239.845 408.093 240.601 408.434L255.583 417.088C256.869 417.796 256.65 419.017 255.236 419.84L240.948 428.084C240.224 428.479 239.418 428.698 238.594 428.725C237.769 428.752 236.95 428.585 236.202 428.238Z" fill="#2B303F"/>
<path d="M257.37 440.506L242.401 431.865C241.115 431.157 241.334 429.923 242.748 429.112L257.036 420.856C257.759 420.454 258.566 420.227 259.392 420.194C260.219 420.16 261.041 420.321 261.794 420.663L276.776 429.305C277.998 430.013 277.844 431.247 276.429 432.057L262.141 440.314C261.416 440.716 260.607 440.943 259.779 440.976C258.95 441.01 258.125 440.849 257.37 440.506Z" fill="#2B303F"/>
<path d="M278.551 452.736L263.633 444.094C262.412 443.387 262.566 442.153 263.98 441.342L278.268 433.086C278.993 432.684 279.802 432.457 280.631 432.423C281.459 432.39 282.284 432.551 283.039 432.893L298.008 441.535C299.23 442.243 299.089 443.477 297.674 444.287L283.386 452.531C282.655 452.948 281.835 453.185 280.994 453.221C280.153 453.257 279.315 453.091 278.551 452.736Z" fill="#2B303F"/>
<path d="M299.719 464.953L284.75 456.311C283.528 455.604 283.682 454.37 285.084 453.559L299.385 445.303C300.107 444.901 300.914 444.674 301.741 444.641C302.567 444.607 303.39 444.768 304.143 445.11L319.125 453.752C320.347 454.46 320.192 455.694 318.778 456.504L304.49 464.76C303.765 465.163 302.956 465.39 302.127 465.423C301.299 465.457 300.474 465.296 299.719 464.953Z" fill="#2B303F"/>
<path d="M320.9 477.183L305.917 468.541C304.696 467.834 304.85 466.599 306.265 465.789L320.552 457.533C321.277 457.131 322.086 456.904 322.915 456.87C323.743 456.837 324.568 456.998 325.323 457.34L340.293 465.982C341.514 466.689 341.36 467.924 339.958 468.734L325.671 476.99C324.946 477.393 324.136 477.62 323.308 477.653C322.479 477.687 321.655 477.526 320.9 477.183Z" fill="#2B303F"/>
<path d="M342.08 489.413L327.111 480.758C325.889 480.051 326.044 478.829 327.445 478.006L341.746 469.763C342.467 469.356 343.273 469.125 344.1 469.089C344.927 469.053 345.751 469.214 346.504 469.557L361.486 478.212C362.708 478.906 362.554 480.141 361.139 480.964L346.851 489.207C346.127 489.612 345.319 489.841 344.49 489.877C343.662 489.912 342.836 489.754 342.08 489.413Z" fill="#2B303F"/>
<path d="M363.248 501.63L348.266 492.988C347.044 492.281 347.199 491.046 348.613 490.236L362.901 481.98C363.626 481.578 364.435 481.351 365.263 481.317C366.092 481.284 366.917 481.445 367.672 481.787L382.641 490.429C383.863 491.136 383.709 492.371 382.307 493.181L368.006 501.437C367.284 501.839 366.477 502.066 365.65 502.1C364.824 502.133 364.001 501.972 363.248 501.63Z" fill="#2B303F"/>
<path d="M384.416 513.86L369.447 505.205C368.225 504.511 368.379 503.276 369.781 502.453L384.082 494.21C384.803 493.806 385.61 493.576 386.436 493.541C387.263 493.505 388.086 493.664 388.84 494.004L403.809 502.659C405.031 503.366 404.876 504.588 403.462 505.411L389.174 513.654C388.453 514.059 387.646 514.289 386.82 514.325C385.993 514.361 385.17 514.201 384.416 513.86Z" fill="#2B303F"/>
<path d="M405.597 526.077L390.614 517.435C389.393 516.728 389.547 515.493 390.962 514.683L405.249 506.427C405.974 506.024 406.783 505.797 407.612 505.764C408.44 505.73 409.265 505.891 410.02 506.234L424.99 514.876C426.211 515.583 426.057 516.818 424.655 517.628L410.355 525.884C409.632 526.286 408.825 526.513 407.999 526.547C407.172 526.58 406.349 526.419 405.597 526.077Z" fill="#2B303F"/>
<path d="M452.973 553.443L411.821 529.665C410.599 528.958 410.741 527.723 412.155 526.913L426.443 518.657C427.168 518.254 427.977 518.027 428.806 517.994C429.634 517.96 430.459 518.121 431.214 518.464L472.367 542.242C473.588 542.936 473.434 544.171 472.019 544.994L457.732 553.237C457.009 553.64 456.203 553.868 455.377 553.903C454.551 553.939 453.728 553.781 452.973 553.443Z" fill="#2B303F"/>
<path d="M172.686 391.613L152.264 379.82C150.978 379.113 151.197 377.878 152.599 377.068L166.899 368.825C167.62 368.418 168.427 368.187 169.254 368.151C170.081 368.115 170.904 368.276 171.657 368.619L192.079 380.412C193.301 381.119 193.147 382.354 191.745 383.164L177.47 391.42C176.744 391.826 175.933 392.056 175.101 392.089C174.27 392.123 173.443 391.959 172.686 391.613Z" fill="#2B303F"/>
<path d="M535.896 505.565L235.174 331.955C233.888 331.261 234.106 330.026 235.521 329.203L242.671 325.088C243.393 324.684 244.199 324.454 245.026 324.419C245.852 324.383 246.676 324.542 247.429 324.882L548.151 498.492C549.373 499.199 549.219 500.421 547.804 501.244L540.667 505.398C539.94 505.796 539.13 506.019 538.301 506.048C537.473 506.077 536.649 505.912 535.896 505.565Z" fill="#2B303F"/>
<path d="M349.603 525.305C349.174 526.241 348.439 527.003 347.52 527.466L264.778 575.241C263.385 576.015 261.83 576.452 260.238 576.517C258.645 576.581 257.06 576.272 255.609 575.614L114.147 493.965C113.542 493.652 113.055 493.151 112.758 492.538C112.243 491.252 112.964 489.824 114.841 488.744L197.596 440.957C198.989 440.182 200.544 439.745 202.137 439.68C203.729 439.616 205.314 439.925 206.766 440.584L348.227 522.232C348.799 522.48 349.258 522.932 349.512 523.501C349.767 524.07 349.799 524.714 349.603 525.305Z" fill="#B1B4C4"/>
<path d="M349.603 525.305C349.174 526.241 348.439 527.003 347.52 527.466L264.778 575.241C263.385 576.015 261.83 576.452 260.238 576.517C258.645 576.582 257.06 576.272 255.609 575.614L114.147 493.965C113.542 493.652 113.055 493.151 112.758 492.538C113.196 491.612 113.929 490.857 114.841 490.39L197.596 442.616C198.989 441.84 200.543 441.401 202.135 441.334C203.727 441.267 205.313 441.574 206.766 442.23L348.227 523.891C348.828 524.2 349.311 524.696 349.603 525.305Z" fill="#C3C6D1"/>
<path d="M558.787 492.397L258.065 318.787C257.403 318.297 256.864 317.659 256.491 316.925C256.118 316.19 255.922 315.379 255.917 314.556V311.019C255.917 309.386 256.907 308.64 258.129 309.347L558.851 482.957C559.525 483.438 560.076 484.07 560.461 484.802C560.845 485.535 561.051 486.348 561.063 487.175V490.712C560.999 492.358 560.009 493.104 558.787 492.397Z" fill="#2B303F"/>
<path d="M303.5 301.644L273.793 284.527C270.076 282.38 267.054 276.606 267.054 271.667V239.813C267.054 234.849 270.076 232.573 273.793 234.669L303.5 251.837C307.229 253.985 310.239 259.759 310.239 264.697V296.552C310.187 301.516 307.178 303.792 303.5 301.644Z" fill="#E9EAF2"/>
<path d="M303.384 228.689L273.728 211.573C270.012 209.425 266.99 200.642 266.99 196.346V159.155C266.99 154.191 270.012 151.915 273.728 154.011L303.384 171.128C307.113 173.276 310.123 179.05 310.123 183.988V221.179C310.123 225.552 307.113 230.837 303.384 228.689Z" fill="#E9EAF2"/>
<path d="M288.723 203.844C282.692 200.359 277.779 191.845 277.779 184.875C277.779 177.905 282.692 175.063 288.723 178.548C294.755 182.033 299.68 190.547 299.68 197.517C299.68 204.487 294.768 207.329 288.723 203.844ZM288.723 181.789C284.235 179.217 280.583 181.313 280.583 186.496C280.73 189.328 281.543 192.086 282.958 194.544C284.373 197.002 286.348 199.092 288.723 200.642C293.224 203.214 296.877 201.13 296.877 195.948C296.731 193.112 295.916 190.351 294.499 187.89C293.082 185.429 291.103 183.339 288.723 181.789Z" fill="#1976D2"/>
<path d="M291.733 198.687L286.769 190.791V184.219L289.572 185.84V190.945L293.585 197.311L291.733 198.687Z" fill="#1976D2"/>
<path d="M303.345 150.025L273.69 132.908C269.973 130.748 266.951 121.077 266.951 116.769V82.5355C266.951 78.2403 269.973 76.4913 273.69 78.6775L303.345 95.807C305.308 97.0834 306.941 98.8051 308.112 100.832C309.283 102.859 309.959 105.134 310.084 107.471V141.717C310.084 145.974 307.075 152.172 303.345 150.025Z" fill="#E9EAF2"/>
<path d="M288.518 108.989C286.73 107.96 285.29 108.796 285.29 110.866C285.349 111.987 285.672 113.078 286.233 114.05C286.794 115.022 287.577 115.848 288.518 116.46C290.305 117.489 291.758 116.653 291.758 114.595C291.695 113.473 291.368 112.38 290.805 111.406C290.242 110.433 289.459 109.604 288.518 108.989ZM297.147 110.275L294.575 108.783C294.158 108.498 293.857 108.074 293.726 107.587L293.057 104.873C292.917 104.387 292.613 103.964 292.196 103.677L284.865 99.4464C284.505 99.2406 284.132 99.3306 284.017 99.665L283.348 101.594C283.315 101.672 283.264 101.741 283.2 101.796C283.135 101.851 283.059 101.891 282.977 101.912C282.895 101.933 282.81 101.935 282.727 101.918C282.644 101.901 282.566 101.865 282.499 101.813L279.927 100.321C278.744 99.6264 277.779 100.192 277.779 101.607V112.821C277.82 113.567 278.036 114.294 278.409 114.941C278.782 115.589 279.302 116.14 279.927 116.55L297.185 126.517C298.369 127.198 299.346 126.645 299.346 125.231V113.978C299.299 113.225 299.076 112.494 298.694 111.844C298.312 111.194 297.782 110.643 297.147 110.236V110.275ZM288.518 118.994C286.951 117.968 285.647 116.589 284.711 114.968C283.775 113.346 283.233 111.527 283.129 109.657C283.129 106.211 285.547 104.822 288.518 106.545C290.088 107.566 291.395 108.945 292.332 110.567C293.268 112.19 293.807 114.011 293.906 115.881C293.906 119.277 291.501 120.678 288.518 118.955V118.994ZM296.388 114.068C296.172 113.927 295.991 113.738 295.862 113.514C295.732 113.291 295.657 113.04 295.642 112.782C295.642 112.294 295.977 112.101 296.388 112.345C296.607 112.484 296.79 112.673 296.922 112.897C297.054 113.12 297.131 113.372 297.147 113.631C297.147 114.081 296.812 114.274 296.388 114.03V114.068Z" fill="#1976D2"/>
<path d="M297.88 270.51C297.88 276.31 288.788 283.846 288.788 283.846C288.788 283.846 279.683 265.842 279.683 260.003C279.683 254.165 283.759 251.85 288.788 254.744C291.435 256.473 293.638 258.801 295.218 261.54C296.797 264.28 297.709 267.353 297.88 270.51Z" fill="#1976D2"/>
<path d="M292.993 272.146C295.318 270.803 295.32 266.454 292.997 262.431C290.675 258.409 286.907 256.236 284.582 257.578C282.257 258.921 282.255 263.27 284.577 267.292C286.9 271.315 290.668 273.488 292.993 272.146Z" fill="#E9EAF2"/>
<path d="M513.288 348.506L333.747 244.842C330.712 243.105 328.268 238.412 328.268 234.386V113.721C328.268 109.696 330.712 107.844 333.747 109.593L513.288 213.245C516.31 214.993 518.753 219.675 518.753 223.713V344.365C518.753 348.403 516.31 350.255 513.288 348.506Z" fill="#E9EAF2"/>
<path d="M492.544 260.788L353.384 180.452C350.015 178.497 347.276 173.276 347.276 168.787V159.695C347.276 155.194 350.015 153.137 353.384 155.079L492.544 235.415C495.913 237.357 498.64 242.578 498.64 247.079V256.171C498.64 260.672 495.913 262.73 492.544 260.788Z" fill="#1D2037"/>
<path d="M416.862 257.972L353.384 221.321C350.015 219.379 347.276 214.158 347.276 209.657V200.616C347.276 196.115 350.015 194.057 353.384 195.999L416.862 232.65C420.231 234.592 422.958 239.813 422.958 244.314V253.342C422.958 257.843 420.231 259.913 416.862 257.972Z" fill="#1976D2"/>
<path d="M550.235 375.049C550.235 375.049 482.552 389.967 427.832 329.19C373.112 268.414 328.474 276.207 328.474 276.207V314.144L550.235 442.165V375.049Z" fill="url(#paint1_linear)"/>
<path d="M550.235 375.049C550.235 375.049 482.552 389.967 427.832 329.19C373.112 268.414 328.474 276.207 328.474 276.207" stroke="#CCCEDD" stroke-width="1.06" stroke-miterlimit="10"/>
<path d="M590.796 400.139L483.388 338.128C476.636 334.27 471.17 323.789 471.17 314.8V145.807C471.17 136.805 476.636 132.689 483.388 136.573L590.796 198.597C597.534 202.455 603 212.936 603 221.925V390.944C603 399.946 597.534 404.035 590.796 400.139Z" fill="#211B49"/>
<path d="M595.091 402.608L598.769 400.795L596.287 395.921L595.091 402.608Z" fill="#211B49"/>
<path d="M473.177 137.049C474.258 136.406 475.394 135.86 476.572 135.416L479.298 140.804L473.177 137.049Z" fill="#211B49"/>
<path d="M587.979 401.553L480.558 339.504C473.82 335.646 468.354 325.165 468.354 316.176V147.221C468.354 138.219 473.82 134.091 480.558 137.988L587.979 200.012C594.718 203.87 600.184 214.338 600.184 223.327V392.32C600.184 401.309 594.718 405.45 587.979 401.553Z" fill="#2E245B"/>
<path d="M500.093 173.224L480.558 161.946V154.899L500.093 166.177V173.224Z" fill="#98B1E2"/>
<path d="M586.758 223.262L503.758 175.333V168.299L586.758 216.215V223.262Z" fill="#C33AFC"/>
<path d="M500.093 195.781L480.558 184.502V177.455L500.093 188.733V195.781Z" fill="#98B1E2"/>
<path d="M558.684 229.602L503.758 197.89V190.842L558.684 222.555V229.602Z" fill="#F4CE2C"/>
<path d="M500.093 207.046L480.558 195.781V188.733L500.093 199.999V207.046Z" fill="#98B1E2"/>
<path d="M572.11 248.635L503.758 209.168V202.121L572.11 241.588V248.635Z" fill="#FF8657"/>
<path d="M500.093 218.324L480.558 207.046V199.999L500.093 211.277V218.324Z" fill="#98B1E2"/>
<path d="M551.366 247.928L503.758 220.446V213.399L551.366 240.881V247.928Z" fill="#98B1E2"/>
<path d="M500.093 184.502L480.558 173.224V166.177L500.093 177.455V184.502Z" fill="#98B1E2"/>
<path d="M545.258 210.582L503.758 186.611V179.564L545.258 203.522V210.582Z" fill="#4D3BFF"/>
<path d="M500.093 229.602L480.558 218.324V211.277L500.093 222.555V229.602Z" fill="#98B1E2"/>
<path d="M528.167 245.806L503.758 231.711V224.664L528.167 238.759V245.806Z" fill="#C33AFC"/>
<path d="M500.093 252.146L480.558 240.881V233.833L500.093 245.112V252.146Z" fill="#98B1E2"/>
<path d="M580.662 298.661L503.758 254.268V247.221L580.662 291.613V298.661Z" fill="#F4CE2C"/>
<path d="M500.093 263.424L480.558 252.146V245.099L500.093 256.377V263.424Z" fill="#98B1E2"/>
<path d="M526.945 278.933L503.758 265.546V258.499L526.945 271.886V278.933Z" fill="#FF8657"/>
<path d="M500.093 274.702L480.558 263.424V256.377L500.093 267.655V274.702Z" fill="#98B1E2"/>
<path d="M572.11 316.279L503.758 276.811V269.777L572.11 309.232V316.279Z" fill="#98B1E2"/>
<path d="M500.093 240.881L480.558 229.602V222.555L500.093 233.833V240.881Z" fill="#98B1E2"/>
<path d="M568.445 280.348L503.758 242.99V235.942L568.445 273.301V280.348Z" fill="#4D3BFF"/>
<path d="M500.093 285.981L480.558 274.702V267.655L500.093 278.933V285.981Z" fill="#98B1E2"/>
<path d="M512.297 293.028L503.758 288.09V281.042L512.297 285.981V293.028Z" fill="#C33AFC"/>
<path d="M500.093 308.524L480.558 297.259V290.212L500.093 301.49V308.524Z" fill="#98B1E2"/>
<path d="M519.627 319.802L503.758 310.646V303.599L519.627 312.755V319.802Z" fill="#F4CE2C"/>
<path d="M500.093 319.802L480.558 308.524V301.477L500.093 312.755V319.802Z" fill="#98B1E2"/>
<path d="M545.258 345.883L503.758 321.924V314.877L545.258 338.835V345.883Z" fill="#FF8657"/>
<path d="M500.093 331.081L480.558 319.802V312.755L500.093 324.033V331.081Z" fill="#98B1E2"/>
<path d="M569.666 371.255L503.758 333.19V326.142L569.666 364.208V371.255Z" fill="#98B1E2"/>
<path d="M500.093 297.259L480.558 285.981V278.933L500.093 290.212V297.259Z" fill="#98B1E2"/>
<path d="M586.758 347.297L503.758 299.368V292.321L586.758 340.237V347.297Z" fill="#4D3BFF"/>
<path d="M46.4508 272.555L34.7224 266.536L10.1466 280.682C4.57817 283.897 0.0513916 281.3 0.0513916 274.857V248.082C0.241387 244.579 1.25446 241.169 3.00844 238.131C4.76242 235.092 7.20793 232.51 10.1466 230.593L156.508 146.064C162.077 142.849 166.603 145.459 166.603 151.889V178.754C166.413 182.257 165.4 185.667 163.646 188.705C161.892 191.744 159.447 194.327 156.508 196.244L58.1021 253.008" fill="#B1B4C4"/>
<path d="M162.938 145.022L168.468 147.26L163.787 152.069L160.469 146.758L162.938 145.022Z" fill="#B1B4C4"/>
<path d="M46.4509 272.555L52.2766 274.895L52.2894 269.88L47.1325 268.851L46.4509 272.555Z" fill="#B1B4C4"/>
<path d="M9.78662 284.206C10.0052 284.669 3.47228 281.994 3.2408 281.634C3.00932 281.274 11.1627 276.49 11.1627 276.49L9.78662 284.206Z" fill="#B1B4C4"/>
<path d="M63.9279 255.335L162.334 198.533C165.27 196.614 167.714 194.03 169.468 190.992C171.222 187.954 172.236 184.546 172.429 181.043V154.23C172.429 147.8 167.902 145.228 162.334 148.392L15.9209 232.92C12.9836 234.839 10.5392 237.422 8.78543 240.46C7.03163 243.498 6.0177 246.907 5.82568 250.41V277.223C5.82568 283.653 10.3525 286.225 15.9209 283.049L40.4967 268.903L52.2766 274.934L63.9279 255.335Z" fill="#E9EAF2"/>
<path d="M159.299 171.72L18.9558 252.738V243.414L159.299 162.383V171.72Z" fill="#1976D2"/>
<path d="M110.842 216.022L18.9558 269.07V259.733L110.842 206.686V216.022Z" fill="#1976D2"/>
<defs>
<linearGradient id="paint0_linear" x1="413.129" y1="372.337" x2="519.999" y2="186.381" gradientUnits="userSpaceOnUse">
<stop offset="0.21" stop-color="white" stop-opacity="0"/>
<stop offset="1" stop-color="white" stop-opacity="0.2"/>
</linearGradient>
<linearGradient id="paint1_linear" x1="440.812" y1="308.419" x2="411.933" y2="358.668" gradientUnits="userSpaceOnUse">
<stop stop-color="#E9EAF2" stop-opacity="0.8"/>
<stop offset="1" stop-color="#E9EAF2" stop-opacity="0"/>
</linearGradient>
</defs>
</svg>
