<svg width="28" height="29" viewBox="0 0 28 29" fill="none" xmlns="http://www.w3.org/2000/svg">
<path d="M20.4867 25C20.3001 25.0007 20.1161 24.9567 19.95 24.8716L14 21.7566L8.05 24.8716C7.85679 24.9732 7.63895 25.0186 7.42125 25.0025C7.20355 24.9865 6.99472 24.9097 6.8185 24.7809C6.64227 24.652 6.50573 24.4763 6.42438 24.2738C6.34303 24.0712 6.32015 23.8499 6.35833 23.635L7.525 17.0666L2.71833 12.4C2.56836 12.2503 2.46198 12.0626 2.4106 11.8571C2.35921 11.6516 2.36477 11.4359 2.42666 11.2333C2.49428 11.0259 2.61867 10.8417 2.78571 10.7015C2.95274 10.5612 3.15574 10.4706 3.37166 10.44L10.0217 9.47162L12.95 3.48662C13.0455 3.28937 13.1947 3.12302 13.3804 3.00662C13.5661 2.89023 13.7808 2.82849 14 2.82849C14.2192 2.82849 14.4339 2.89023 14.6196 3.00662C14.8053 3.12302 14.9545 3.28937 15.05 3.48662L18.0133 9.45995L24.6633 10.4283C24.8793 10.459 25.0823 10.5496 25.2493 10.6898C25.4163 10.83 25.5407 11.0143 25.6083 11.2216C25.6702 11.4242 25.6758 11.6399 25.6244 11.8454C25.573 12.051 25.4666 12.2386 25.3167 12.3883L20.51 17.055L21.6767 23.6233C21.7183 23.842 21.6965 24.0681 21.6138 24.2748C21.5311 24.4815 21.391 24.6603 21.21 24.79C20.9987 24.938 20.7444 25.0119 20.4867 25Z" fill="white"/>
</svg>
