<svg width="64" height="64" viewBox="0 0 64 64" fill="none" xmlns="http://www.w3.org/2000/svg">
<path d="M56.6399 16.7168C54.7947 17.5343 52.8374 18.0706 50.8332 18.3079C52.9442 17.0448 54.524 15.0572 55.278 12.7155C53.2938 13.8935 51.1224 14.723 48.8582 15.168C47.9122 14.159 46.769 13.355 45.4996 12.8059C44.2302 12.2568 42.8615 11.9742 41.4783 11.9757C35.895 11.9757 31.3676 16.5018 31.3676 22.0864C31.3676 22.8781 31.4572 23.6506 31.63 24.3911C23.2268 23.9693 15.7772 19.9437 10.7904 13.8259C9.8912 15.369 9.41872 17.1235 9.42139 18.9095C9.42007 20.5741 9.82996 22.2133 10.6146 23.6814C11.3993 25.1495 12.5345 26.401 13.9193 27.3248C12.314 27.2738 10.7441 26.8403 9.34011 26.0602C9.33883 26.1024 9.33883 26.144 9.33883 26.1875C9.33883 31.0848 12.8236 35.1712 17.4483 36.1011C15.9592 36.5043 14.3978 36.5634 12.8825 36.2739C14.1689 40.2899 17.9027 43.2141 22.327 43.296C18.7455 46.1066 14.3228 47.6311 9.77019 47.6243C8.95419 47.6243 8.14971 47.577 7.35803 47.4829C11.981 50.4533 17.3613 52.0299 22.8563 52.0243C41.4534 52.0243 51.623 36.6189 51.623 23.2595C51.623 22.8218 51.6127 22.3847 51.5935 21.9501C53.574 20.5203 55.283 18.748 56.6399 16.7168Z" fill="#2D365C"/>
</svg>
