<svg width="60" height="60" viewBox="0 0 60 60" fill="none" xmlns="http://www.w3.org/2000/svg">
<path d="M59 11.5929C56.8671 12.538 54.5758 13.1766 52.167 13.4653C54.6524 11.9781 56.5119 9.63741 57.3984 6.88003C55.0633 8.26704 52.5076 9.24334 49.8425 9.7665C48.0503 7.85291 45.6765 6.58456 43.0895 6.15835C40.5026 5.73215 37.8473 6.17194 35.536 7.40944C33.2246 8.64694 31.3865 10.6129 30.3069 13.0022C29.2274 15.3914 28.9668 18.0702 29.5658 20.6227C24.8342 20.3851 20.2055 19.1553 15.98 17.0131C11.7545 14.8708 8.02672 11.8641 5.03849 8.18788C4.01674 9.95041 3.42923 11.9939 3.42923 14.1703C3.42809 16.1295 3.91056 18.0587 4.83383 19.7867C5.7571 21.5147 7.09263 22.9881 8.72192 24.0762C6.83238 24.0161 4.98453 23.5055 3.33216 22.587V22.7402C3.33197 25.4881 4.28248 28.1514 6.0224 30.2782C7.76232 32.4051 10.1845 33.8644 12.8779 34.4087C11.1251 34.8831 9.28731 34.953 7.50348 34.6131C8.2634 36.9774 9.74367 39.045 11.737 40.5263C13.7304 42.0076 16.1371 42.8284 18.6202 42.874C14.405 46.1829 9.19931 47.9779 3.84048 47.97C2.89122 47.9702 1.94277 47.9148 1 47.8039C6.43951 51.3013 12.7715 53.1575 19.2384 53.1503C41.1295 53.1503 53.0968 35.0192 53.0968 19.2944C53.0968 18.7835 53.084 18.2675 53.061 17.7566C55.3888 16.0732 57.3982 13.9886 58.9949 11.6005L59 11.5929V11.5929Z" fill="#2D365C"/>
</svg>
